<?xml version="1.0" standalone="no"?>
<!DOCTYPE svg PUBLIC "-//W3C//DTD SVG 1.1//EN" "http://www.w3.org/Graphics/SVG/1.1/DTD/svg11.dtd" >
<svg>
<metadata>
Created by FontForge 20090914 at Thu Apr 23 14:45:14 2015
 By www-data
Cyril B. - CyrilusOne@aol.com &#194;&#169; Retourverslefutur.com
</metadata>
<defs>
<font id="Backtothefuture2002-Regular" horiz-adv-x="1139" >
  <font-face 
    font-family="Back to the future 2002"
    font-weight="400"
    font-stretch="normal"
    units-per-em="2048"
    panose-1="2 0 0 0 0 0 0 0 0 0"
    ascent="1638"
    descent="-410"
    x-height="1797"
    cap-height="1815"
    bbox="-39.0029 -293 3700 1826"
    underline-thickness="48"
    underline-position="-140"
    unicode-range="U+0020-U+FB02"
  />
<missing-glyph horiz-adv-x="1536" 
d="M30 0v1280h1024v-1280h-1024zM62 32h960v1216h-960v-1216z" />
    <glyph glyph-name=".notdef" horiz-adv-x="1536" 
d="M30 0v1280h1024v-1280h-1024zM62 32h960v1216h-960v-1216z" />
    <glyph glyph-name="space" unicode=" " horiz-adv-x="600" 
 />
    <glyph glyph-name="exclam" unicode="!" horiz-adv-x="754" 
d="M56 1826l426 0.000976562c64 -141.333 111.667 -256.333 143 -345s64.833 -191.167 100.5 -307.5s63.5 -235.333 83.5 -357s35 -222.834 45 -303.501l-449 -1l-73 369c-20.667 108.667 -48.667 216.167 -84 322.5s-75.833 214 -121.5 323s-89.167 206.5 -130.5 292.5
l114 7h-54zM410 326.001l17 -331h443l-19 351l-440 2z" />
    <glyph glyph-name="quotedbl" unicode="&#x22;" horiz-adv-x="1174" 
d="M765 1196c-39.333 146.667 -72.668 255.5 -100.001 326.5s-65.666 162.167 -114.999 273.5l170 -1l148 -1c64 -165.333 116.667 -365.333 158 -600zM318.998 1198c-52.667 146.667 -94.667 258 -126 334s-71 164.667 -119 266l199 -1l121 -1
c84.667 -165.333 152 -365.333 202 -600z" />
    <glyph glyph-name="numbersign" unicode="#" horiz-adv-x="1952" 
d="M124 1378l310.999 -0.000976562c-84 184 -159 326.667 -225 428h450l202 -412h148c-80 159.333 -142 294 -186 404h404c40.667 -70.667 108 -203 202 -397h304c50.667 -146.667 93.667 -263 129 -349l-303 -1c32 -84 55.333 -156.333 70 -217l280 -1
c40 -122.667 68 -234 84 -334l-272 1c25.333 -112 41.666 -195.833 48.999 -251.5s16.333 -139.167 27 -250.5h-411c-20 162 -38.833 284.833 -56.5 368.5l-26.5 125.5h-152c20 -91.333 33.833 -157.166 41.5 -197.499s15.334 -92.166 23.001 -155.499
s14.167 -110.333 19.5 -141h-403c-20 136.667 -37.667 241.667 -53 315s-30.666 138 -45.999 194h-341c-20.667 101.333 -46 207.666 -76 318.999h334l-69 182l-10 51h-319c-46 106.667 -89 213 -129 319zM1082 830.999l150 -7l-86 242h-134z" />
    <glyph glyph-name="dollar" unicode="$" horiz-adv-x="1078" 
d="M301 4c65.333 193.333 109.832 337.834 133.499 433.501s56.334 207.5 98.001 335.5s99.167 346.667 172.5 656l-667 -550c21.333 153.333 35 260 41 320s11.667 90 17 90l647 534h378c-10.667 -84.667 -28 -199.834 -52 -345.501s-52.333 -281.167 -85 -406.5
l-96.5 -384c-31.667 -130.667 -100.5 -358 -206.5 -682z" />
    <glyph glyph-name="ampersand" unicode="&#x26;" horiz-adv-x="1898" 
d="M1083 1786c-3.33301 -86 -6.16699 -141 -8.5 -165l-3.5 -36h-222h-50c-8 -96 -16.667 -173.667 -26 -233s-20.333 -117.5 -33 -174.5s-29 -117.333 -49 -181s-34.667 -106.167 -44 -127.5h-251l76 257c32 146.667 51.833 253.5 59.5 320.5s11.167 114.167 10.5 141.5
h-225l7 133l-2 65h38h723zM1313 1110c-1.33301 -2 -2.50098 -8.50098 -3.50098 -19.501s0.166992 -21.333 3.5 -31s12.166 -15.667 26.499 -18s43.666 -2.66602 87.999 -0.999023s71.5 2.83398 81.5 3.50098s19.667 5.5 29 14.5s17.333 19.333 24 31
s13.334 30.334 20.001 56.001s13.834 55.667 21.501 90s15.667 75.833 24 124.5s15.333 95.334 21 140.001s5.33398 73.667 -0.999023 87s-18.5 20.666 -36.5 21.999s-45.333 2 -82 2s-61.667 -0.666992 -75 -2s-24 -5.83301 -32 -13.5s-13.333 -18.167 -16 -31.5
s-7.66699 -45 -15 -95s-14 -90.833 -20 -122.5s-12 -59.834 -18 -84.501s-19.333 -75.334 -40 -152.001zM1031 969.999c40.667 123.333 66.6699 205.499 78.0029 246.499s21.833 87.333 31.5 139s18.667 118.5 27 200.5s14.666 133.833 18.999 155.5s17 39 38 52
s50.5 20.167 88.5 21.5s110 2 216 2s184.667 -0.666992 236 -2s88 -12.666 110 -33.999s30.5 -69 25.5 -143s-13.833 -150.667 -26.5 -230s-26.167 -147.333 -40.5 -204s-27.833 -106.167 -40.5 -148.5s-26.834 -72.833 -42.501 -91.5s-35.834 -35.5 -60.501 -50.5
s-51.334 -22.833 -80.001 -23.5s-105.5 -0.666992 -230.5 0s-209 1 -252 1s-70.833 7.83301 -83.5 23.5s-18.667 32.5 -18 50.5s2.33398 29.667 5.00098 35zM730.001 785.998c-10.667 -74.667 -18 -122.167 -22 -142.5l-6 -30.5h-173h-38c-16 -82 -30.333 -148.333 -43 -199
s-26.5 -100.667 -41.5 -150s-33.167 -100.833 -54.5 -154.5s-37 -90.167 -47 -109.5h-195l83 220c38 125.333 63.167 216.833 75.5 274.5s19.833 98.5 22.5 122.5h-177l18 114l6 55h30h562zM576.001 -3.00195l67 140.999l54 137l44 146l39 150l24 117l16 91h137h62l-13 -110
l-20 -106l-22 -91l165 4l26 107l21 143l4 51l201 -2c-8.66699 -77.333 -17.167 -137.833 -25.5 -181.5s-22.5 -100.167 -42.5 -169.5s-36.667 -122.666 -50 -159.999l-43.5 -117c-15.667 -40.667 -43.167 -91.667 -82.5 -153h-180l55 127l48 120l22 72l-165 3l-23 -65
l-52 -113l-68 -141h-194h-4zM1488 773.997l202.001 0.00195312h331c-8.66699 -68 -20.667 -120.333 -36 -157h-349c-10 -50 -21.667 -94 -35 -132h349l-18 -72l-37 -92h-339l-45 -131l-14 -32l332 -3l-38 -82l-46 -76h-513c44.667 87.333 77.667 160.166 99 218.499
s40.666 113.666 57.999 165.999s32.5 105.833 45.5 160.5z" />
    <glyph glyph-name="quotesingle" unicode="'" horiz-adv-x="922" 
d="M472 1198c-54.667 146.667 -98.333 258 -131 334s-73.667 164.667 -123 266l206 -1l125 -1c88 -165.333 163 -365.333 225 -600l-302 2v0z" />
    <glyph glyph-name="parenleft" unicode="(" horiz-adv-x="1083" 
d="M798 1717l87 -186.999h-363c14.667 -59.333 44 -165.5 88 -318.5s77.833 -278 101.5 -375s55.167 -277.167 94.5 -540.5l377 -2l27 -109l22 -191h-788c3.33301 71.333 -2.66699 167 -18 287s-30 222.167 -44 306.5s-32.833 173.666 -56.5 267.999s-59 213 -106 356
s-87.5 261.667 -121.5 356s-67.333 174.833 -100 241.5h751z" />
    <glyph glyph-name="parenright" unicode=")" horiz-adv-x="1204" 
d="M213 1809l474 -0.000976562c75.333 -194 133.333 -357.5 174 -490.5s76.667 -264.667 108 -395s57.833 -251.833 79.5 -364.5s47.5 -302 77.5 -568h-708l-28 192l-24 115h359c-37.333 235.333 -78 437.333 -122 606s-104.667 378.334 -182 629.001h-329l-80 207l-19 70z
" />
    <glyph glyph-name="asterisk" unicode="*" horiz-adv-x="790" 
d="M305 1800c30 0 48.334 -21.665 55.001 -64.998c3.33301 -18.667 5.66602 -48 6.99902 -88l5 -123l1 -7c0.666992 -6.66699 3 -10 7 -10c3.33301 0 6.33301 3 9 9c62 128.667 111.667 193 149 193c8.66699 0 17.334 -3.16699 26.001 -9.5s13.667 -14.833 15 -25.5
c1.33301 -10 0.166016 -18.333 -3.50098 -25s-27.5 -28.334 -71.5 -65.001l-93 -76c-6 -4 -8.66699 -8 -8 -12c0.666992 -5.33301 4.33398 -8 11.001 -8c3.33301 0 6.66602 0.666992 9.99902 2c16.667 4 49.834 9.83301 99.501 17.5s80.167 11.5 91.5 11.5
c45.333 0 70.333 -15 75 -45c4 -25.333 -8.66699 -38 -38 -38c-12.667 0 -41.667 3.33301 -87 10l-133 20l-16 3c-6 0 -8.66699 -2 -8 -6c0.666992 -2.66699 4 -5.66699 10 -9c48.667 -28 98.167 -60.333 148.5 -97s77.166 -64.334 80.499 -83.001
c1.33301 -10 -1.66699 -18.5 -9 -25.5s-16 -10.5 -26 -10.5c-18 0 -41.5 13.833 -70.5 41.5s-72.833 76.834 -131.5 147.501c-6 8 -10.333 12 -13 12c-3.33301 0 -4.66602 -3.33301 -3.99902 -10c0.666992 -2.66699 2 -6.66699 4 -12
c26.667 -89.333 44.334 -162 53.001 -218c5.33301 -34 -4.66699 -51 -30 -51c-29.333 0 -47 18.667 -53 56c-3.33301 23.333 -4.66602 60.333 -3.99902 111s2.33398 87.334 5.00098 110.001l1 4c-0.666992 6 -3.66699 9 -9 9l-5 -5
c-21.333 -44.667 -47.5 -90.167 -78.5 -136.5s-54.167 -69.5 -69.5 -69.5c-10.667 0 -20 4 -28 12s-13 16.333 -15 25c-1.33301 10.667 0 19.667 4 27s21.667 26.833 53 58.5s61.333 57.834 90 78.501c16 11.333 23.667 18.666 23 21.999c0 3.33301 -2 5 -6 5l-7 -1
c-9.33301 -2 -43.166 -8.16699 -101.499 -18.5s-95.833 -15.5 -112.5 -15.5c-38.667 0 -60.334 14.667 -65.001 44c-4.66699 28 11.666 42 48.999 42c21.333 0 53 -3.33301 95 -10l122 -19l17 -3c5.33301 0 7.66602 2 6.99902 6c-0.666992 2.66699 -7.33398 8 -20.001 16
c-9.33301 5.33301 -25 15.333 -47 30l-128 83.5c-35.333 22.333 -54.333 43.166 -57 62.499c-2 10 0.5 18.667 7.5 26s15.5 11 25.5 11c13.333 0 31.166 -9.5 53.499 -28.5s62.5 -58.833 120.5 -119.5c37.333 -37.333 57.333 -56 60 -56c4 0 5.66699 2.33301 5 7l-4 12
c-40 91.333 -64 162.666 -72 213.999c-6.66699 41.333 3 62 29 62zM305.001 1800c30 0 48.334 -21.665 55.001 -64.998c3.33301 -18.667 5.66602 -48 6.99902 -88l5 -123l1 -7c0.666992 -6.66699 3 -10 7 -10c3.33301 0 6.33301 3 9 9c62 128.667 111.667 193 149 193
c8.66699 0 17.334 -3.16699 26.001 -9.5s13.667 -14.833 15 -25.5c1.33301 -10 0.166016 -18.333 -3.50098 -25s-27.5 -28.334 -71.5 -65.001l-93 -76c-6 -4 -8.66699 -8 -8 -12c0.666992 -5.33301 4.33398 -8 11.001 -8c3.33301 0 6.66602 0.666992 9.99902 2
c16.667 4 49.834 9.83301 99.501 17.5s80.167 11.5 91.5 11.5c45.333 0 70.333 -15 75 -45c4 -25.333 -8.66699 -38 -38 -38c-12.667 0 -41.667 3.33301 -87 10l-133 20l-16 3c-6 0 -8.66699 -2 -8 -6c0.666992 -2.66699 4 -5.66699 10 -9
c48.667 -28 98.167 -60.333 148.5 -97s77.166 -64.334 80.499 -83.001c1.33301 -10 -1.66699 -18.5 -9 -25.5s-16 -10.5 -26 -10.5c-18 0 -41.5 13.833 -70.5 41.5s-72.833 76.834 -131.5 147.501c-6 8 -10.333 12 -13 12c-3.33301 0 -4.66602 -3.33301 -3.99902 -10
c0.666992 -2.66699 2 -6.66699 4 -12c26.667 -89.333 44.334 -162 53.001 -218c5.33301 -34 -4.66699 -51 -30 -51c-29.333 0 -47 18.667 -53 56c-3.33301 23.333 -4.66602 60.333 -3.99902 111s2.33398 87.334 5.00098 110.001l1 4c-0.666992 6 -3.66699 9 -9 9l-5 -5
c-21.333 -44.667 -47.5 -90.167 -78.5 -136.5s-54.167 -69.5 -69.5 -69.5c-10.667 0 -20 4 -28 12s-13 16.333 -15 25c-1.33301 10.667 0 19.667 4 27s21.667 26.833 53 58.5s61.333 57.834 90 78.501c16 11.333 23.667 18.666 23 21.999c0 3.33301 -2 5 -6 5l-7 -1
c-9.33301 -2 -43.166 -8.16699 -101.499 -18.5s-95.833 -15.5 -112.5 -15.5c-38.667 0 -60.334 14.667 -65.001 44c-4.66699 28 11.666 42 48.999 42c21.333 0 53 -3.33301 95 -10l122 -19l17 -3c5.33301 0 7.66602 2 6.99902 6c-0.666992 2.66699 -7.33398 8 -20.001 16
c-9.33301 5.33301 -25 15.333 -47 30l-128 83.5c-35.333 22.333 -54.333 43.166 -57 62.499c-2 10 0.5 18.667 7.5 26s15.5 11 25.5 11c13.333 0 31.166 -9.5 53.499 -28.5s62.5 -58.833 120.5 -119.5c37.333 -37.333 57.333 -56 60 -56c4 0 5.66699 2.33301 5 7l-4 12
c-40 91.333 -64 162.666 -72 213.999c-6.66699 41.333 3 62 29 62zM305.002 1800c30 0 48.334 -21.665 55.001 -64.998c3.33301 -18.667 5.66602 -48 6.99902 -88l5 -123l1 -7c0.666992 -6.66699 3 -10 7 -10c3.33301 0 6.33301 3 9 9c62 128.667 111.667 193 149 193
c8.66699 0 17.334 -3.16699 26.001 -9.5s13.667 -14.833 15 -25.5c1.33301 -10 0.166016 -18.333 -3.50098 -25s-27.5 -28.334 -71.5 -65.001l-93 -76c-6 -4 -8.66699 -8 -8 -12c0.666992 -5.33301 4.33398 -8 11.001 -8c3.33301 0 6.66602 0.666992 9.99902 2
c16.667 4 49.834 9.83301 99.501 17.5s80.167 11.5 91.5 11.5c45.333 0 70.333 -15 75 -45c4 -25.333 -8.66699 -38 -38 -38c-12.667 0 -41.667 3.33301 -87 10l-133 20l-16 3c-6 0 -8.66699 -2 -8 -6c0.666992 -2.66699 4 -5.66699 10 -9
c48.667 -28 98.167 -60.333 148.5 -97s77.166 -64.334 80.499 -83.001c1.33301 -10 -1.66699 -18.5 -9 -25.5s-16 -10.5 -26 -10.5c-18 0 -41.5 13.833 -70.5 41.5s-72.833 76.834 -131.5 147.501c-6 8 -10.333 12 -13 12c-3.33301 0 -4.66602 -3.33301 -3.99902 -10
c0.666992 -2.66699 2 -6.66699 4 -12c26.667 -89.333 44.334 -162 53.001 -218c5.33301 -34 -4.66699 -51 -30 -51c-29.333 0 -47 18.667 -53 56c-3.33301 23.333 -4.66602 60.333 -3.99902 111s2.33398 87.334 5.00098 110.001l1 4c-0.666992 6 -3.66699 9 -9 9l-5 -5
c-21.333 -44.667 -47.5 -90.167 -78.5 -136.5s-54.167 -69.5 -69.5 -69.5c-10.667 0 -20 4 -28 12s-13 16.333 -15 25c-1.33301 10.667 0 19.667 4 27s21.667 26.833 53 58.5s61.333 57.834 90 78.501c16 11.333 23.667 18.666 23 21.999c0 3.33301 -2 5 -6 5l-7 -1
c-9.33301 -2 -43.166 -8.16699 -101.499 -18.5s-95.833 -15.5 -112.5 -15.5c-38.667 0 -60.334 14.667 -65.001 44c-4.66699 28 11.666 42 48.999 42c21.333 0 53 -3.33301 95 -10l122 -19l17 -3c5.33301 0 7.66602 2 6.99902 6c-0.666992 2.66699 -7.33398 8 -20.001 16
c-9.33301 5.33301 -25 15.333 -47 30l-128 83.5c-35.333 22.333 -54.333 43.166 -57 62.499c-2 10 0.5 18.667 7.5 26s15.5 11 25.5 11c13.333 0 31.166 -9.5 53.499 -28.5s62.5 -58.833 120.5 -119.5c37.333 -37.333 57.333 -56 60 -56c4 0 5.66699 2.33301 5 7l-4 12
c-40 91.333 -64 162.666 -72 213.999c-6.66699 41.333 3 62 29 62zM305.003 1800.01c30 0 48.334 -21.665 55.001 -64.998c3.33301 -18.667 5.66602 -48 6.99902 -88l5 -123l1 -7c0.666992 -6.66699 3 -10 7 -10c3.33301 0 6.33301 3 9 9c62 128.667 111.667 193 149 193
c8.66699 0 17.334 -3.16699 26.001 -9.5s13.667 -14.833 15 -25.5c1.33301 -10 0.166016 -18.333 -3.50098 -25s-27.5 -28.334 -71.5 -65.001l-93 -76c-6 -4 -8.66699 -8 -8 -12c0.666992 -5.33301 4.33398 -8 11.001 -8c3.33301 0 6.66602 0.666992 9.99902 2
c16.667 4 49.834 9.83301 99.501 17.5s80.167 11.5 91.5 11.5c45.333 0 70.333 -15 75 -45c4 -25.333 -8.66699 -38 -38 -38c-12.667 0 -41.667 3.33301 -87 10l-133 20l-16 3c-6 0 -8.66699 -2 -8 -6c0.666992 -2.66699 4 -5.66699 10 -9
c48.667 -28 98.167 -60.333 148.5 -97s77.166 -64.334 80.499 -83.001c1.33301 -10 -1.66699 -18.5 -9 -25.5s-16 -10.5 -26 -10.5c-18 0 -41.5 13.833 -70.5 41.5s-72.833 76.834 -131.5 147.501c-6 8 -10.333 12 -13 12c-3.33301 0 -4.66602 -3.33301 -3.99902 -10
c0.666992 -2.66699 2 -6.66699 4 -12c26.667 -89.333 44.334 -162 53.001 -218c5.33301 -34 -4.66699 -51 -30 -51c-29.333 0 -47 18.667 -53 56c-3.33301 23.333 -4.66602 60.333 -3.99902 111s2.33398 87.334 5.00098 110.001l1 4c-0.666992 6 -3.66699 9 -9 9l-5 -5
c-21.333 -44.667 -47.5 -90.167 -78.5 -136.5s-54.167 -69.5 -69.5 -69.5c-10.667 0 -20 4 -28 12s-13 16.333 -15 25c-1.33301 10.667 0 19.667 4 27s21.667 26.833 53 58.5s61.333 57.834 90 78.501c16 11.333 23.667 18.666 23 21.999c0 3.33301 -2 5 -6 5l-7 -1
c-9.33301 -2 -43.166 -8.16699 -101.499 -18.5s-95.833 -15.5 -112.5 -15.5c-38.667 0 -60.334 14.667 -65.001 44c-4.66699 28 11.666 42 48.999 42c21.333 0 53 -3.33301 95 -10l122 -19l17 -3c5.33301 0 7.66602 2 6.99902 6c-0.666992 2.66699 -7.33398 8 -20.001 16
c-9.33301 5.33301 -25 15.333 -47 30l-128 83.5c-35.333 22.333 -54.333 43.166 -57 62.499c-2 10 0.5 18.667 7.5 26s15.5 11 25.5 11c13.333 0 31.166 -9.5 53.499 -28.5s62.5 -58.833 120.5 -119.5c37.333 -37.333 57.333 -56 60 -56c4 0 5.66699 2.33301 5 7l-4 12
c-40 91.333 -64 162.666 -72 213.999c-6.66699 41.333 3 62 29 62zM305.004 1800.01c30 0 48.334 -21.665 55.001 -64.998c3.33301 -18.667 5.66602 -48 6.99902 -88l5 -123l1 -7c0.666992 -6.66699 3 -10 7 -10c3.33301 0 6.33301 3 9 9c62 128.667 111.667 193 149 193
c8.66699 0 17.334 -3.16699 26.001 -9.5s13.667 -14.833 15 -25.5c1.33301 -10 0.166016 -18.333 -3.50098 -25s-27.5 -28.334 -71.5 -65.001l-93 -76c-6 -4 -8.66699 -8 -8 -12c0.666992 -5.33301 4.33398 -8 11.001 -8c3.33301 0 6.66602 0.666992 9.99902 2
c16.667 4 49.834 9.83301 99.501 17.5s80.167 11.5 91.5 11.5c45.333 0 70.333 -15 75 -45c4 -25.333 -8.66699 -38 -38 -38c-12.667 0 -41.667 3.33301 -87 10l-133 20l-16 3c-6 0 -8.66699 -2 -8 -6c0.666992 -2.66699 4 -5.66699 10 -9
c48.667 -28 98.167 -60.333 148.5 -97s77.166 -64.334 80.499 -83.001c1.33301 -10 -1.66699 -18.5 -9 -25.5s-16 -10.5 -26 -10.5c-18 0 -41.5 13.833 -70.5 41.5s-72.833 76.834 -131.5 147.501c-6 8 -10.333 12 -13 12c-3.33301 0 -4.66602 -3.33301 -3.99902 -10
c0.666992 -2.66699 2 -6.66699 4 -12c26.667 -89.333 44.334 -162 53.001 -218c5.33301 -34 -4.66699 -51 -30 -51c-29.333 0 -47 18.667 -53 56c-3.33301 23.333 -4.66602 60.333 -3.99902 111s2.33398 87.334 5.00098 110.001l1 4c-0.666992 6 -3.66699 9 -9 9l-5 -5
c-21.333 -44.667 -47.5 -90.167 -78.5 -136.5s-54.167 -69.5 -69.5 -69.5c-10.667 0 -20 4 -28 12s-13 16.333 -15 25c-1.33301 10.667 0 19.667 4 27s21.667 26.833 53 58.5s61.333 57.834 90 78.501c16 11.333 23.667 18.666 23 21.999c0 3.33301 -2 5 -6 5l-7 -1
c-9.33301 -2 -43.166 -8.16699 -101.499 -18.5s-95.833 -15.5 -112.5 -15.5c-38.667 0 -60.334 14.667 -65.001 44c-4.66699 28 11.666 42 48.999 42c21.333 0 53 -3.33301 95 -10l122 -19l17 -3c5.33301 0 7.66602 2 6.99902 6c-0.666992 2.66699 -7.33398 8 -20.001 16
c-9.33301 5.33301 -25 15.333 -47 30l-128 83.5c-35.333 22.333 -54.333 43.166 -57 62.499c-2 10 0.5 18.667 7.5 26s15.5 11 25.5 11c13.333 0 31.166 -9.5 53.499 -28.5s62.5 -58.833 120.5 -119.5c37.333 -37.333 57.333 -56 60 -56c4 0 5.66699 2.33301 5 7l-4 12
c-40 91.333 -64 162.666 -72 213.999c-6.66699 41.333 3 62 29 62zM305.005 1800.01c30 0 48.334 -21.665 55.001 -64.998c3.33301 -18.667 5.66602 -48 6.99902 -88l5 -123l1 -7c0.666992 -6.66699 3 -10 7 -10c3.33301 0 6.33301 3 9 9c62 128.667 111.667 193 149 193
c8.66699 0 17.334 -3.16699 26.001 -9.5s13.667 -14.833 15 -25.5c1.33301 -10 0.166016 -18.333 -3.50098 -25s-27.5 -28.334 -71.5 -65.001l-93 -76c-6 -4 -8.66699 -8 -8 -12c0.666992 -5.33301 4.33398 -8 11.001 -8c3.33301 0 6.66602 0.666992 9.99902 2
c16.667 4 49.834 9.83301 99.501 17.5s80.167 11.5 91.5 11.5c45.333 0 70.333 -15 75 -45c4 -25.333 -8.66699 -38 -38 -38c-12.667 0 -41.667 3.33301 -87 10l-133 20l-16 3c-6 0 -8.66699 -2 -8 -6c0.666992 -2.66699 4 -5.66699 10 -9
c48.667 -28 98.167 -60.333 148.5 -97s77.166 -64.334 80.499 -83.001c1.33301 -10 -1.66699 -18.5 -9 -25.5s-16 -10.5 -26 -10.5c-18 0 -41.5 13.833 -70.5 41.5s-72.833 76.834 -131.5 147.501c-6 8 -10.333 12 -13 12c-3.33301 0 -4.66602 -3.33301 -3.99902 -10
c0.666992 -2.66699 2 -6.66699 4 -12c26.667 -89.333 44.334 -162 53.001 -218c5.33301 -34 -4.66699 -51 -30 -51c-29.333 0 -47 18.667 -53 56c-3.33301 23.333 -4.66602 60.333 -3.99902 111s2.33398 87.334 5.00098 110.001l1 4c-0.666992 6 -3.66699 9 -9 9l-5 -5
c-21.333 -44.667 -47.5 -90.167 -78.5 -136.5s-54.167 -69.5 -69.5 -69.5c-10.667 0 -20 4 -28 12s-13 16.333 -15 25c-1.33301 10.667 0 19.667 4 27s21.667 26.833 53 58.5s61.333 57.834 90 78.501c16 11.333 23.667 18.666 23 21.999c0 3.33301 -2 5 -6 5l-7 -1
c-9.33301 -2 -43.166 -8.16699 -101.499 -18.5s-95.833 -15.5 -112.5 -15.5c-38.667 0 -60.334 14.667 -65.001 44c-4.66699 28 11.666 42 48.999 42c21.333 0 53 -3.33301 95 -10l122 -19l17 -3c5.33301 0 7.66602 2 6.99902 6c-0.666992 2.66699 -7.33398 8 -20.001 16
c-9.33301 5.33301 -25 15.333 -47 30l-128 83.5c-35.333 22.333 -54.333 43.166 -57 62.499c-2 10 0.5 18.667 7.5 26s15.5 11 25.5 11c13.333 0 31.166 -9.5 53.499 -28.5s62.5 -58.833 120.5 -119.5c37.333 -37.333 57.333 -56 60 -56c4 0 5.66699 2.33301 5 7l-4 12
c-40 91.333 -64 162.666 -72 213.999c-6.66699 41.333 3 62 29 62z" />
    <glyph glyph-name="plus" unicode="+" horiz-adv-x="1663" 
d="M929 4l-52.5 337.999c-11.667 73.333 -25.167 135 -40.5 185h-532l-50 285h524c-15.333 32.667 -61.666 168.334 -138.999 407.001h311l139 -415h539c4 -20 22 -117.667 54 -293h-521v0c8.66699 -66.667 19.167 -131.167 31.5 -193.5s28.166 -169.5 47.499 -321.5h-296z
" />
    <glyph glyph-name="comma" unicode="," horiz-adv-x="826" 
d="M421 129l-17 83l-33 164l206 -1l153 -1l16 -248l7 -347l-281 -3z" />
    <glyph glyph-name="hyphen" unicode="-" horiz-adv-x="1400" 
d="M343 511l-58 314h617h395l72 -314h-382h-644z" />
    <glyph glyph-name="period" unicode="." horiz-adv-x="703" 
d="M399 -5c-0.666992 98 -19 227.334 -55 388.001l475 1c47.333 -160.667 71.333 -290.334 72 -389.001h-492v0z" />
    <glyph glyph-name="slash" unicode="/" horiz-adv-x="1478" 
d="M373 4l401 1792h465l-408 -1800h-458v8z" />
    <glyph glyph-name="zero" unicode="0" horiz-adv-x="1720" 
d="M355 212c-28.667 242.667 -50.334 404.501 -65.001 485.501s-35.334 172.167 -62.001 273.5s-68.834 233 -126.501 395s-91.5 264.167 -101.5 306.5s0.166992 76.5 30.5 102.5s82.833 40.333 157.5 43s218.334 4 431.001 4s371.5 -1.33301 476.5 -4
s189.333 -25.5 253 -68.5s123.667 -136.667 180 -281s107 -294.833 152 -451.5s79 -290.834 102 -402.501s40.5 -209.167 52.5 -292.5s10.667 -143.5 -4 -180.5s-40.167 -70 -76.5 -99s-82.666 -44.667 -138.999 -47s-210.166 -2.33301 -461.499 0s-420.5 3.5 -507.5 3.5
s-150.167 15.167 -189.5 45.5s-66.5 63.333 -81.5 99s-21.833 58.5 -20.5 68.5zM1298 323.001l61.501 13c41 8.66699 45 66.5 12 173.5s-58.333 209.833 -76 308.5s-58.834 113 -123.501 43s-146.167 -141.833 -244.5 -215.5s-143.166 -168.167 -134.499 -283.5
c43.333 -45.333 211.666 -58.333 504.999 -39zM607.001 1483l-57.001 -2.49805c-38 -1.66699 -35 -57.834 9 -168.501s75.167 -207 93.5 -289s56.333 -98.167 114 -48.5l258 224c114.333 99.667 138.5 184.167 72.5 253.5c-33.333 39.333 -196.666 49.666 -489.999 30.999z
" />
    <glyph glyph-name="one" unicode="1" horiz-adv-x="1320" 
d="M921 -10c-28.667 188.667 -51.667 332.001 -69 430.001l-62 339c-24 128 -65.333 296.667 -124 506l-365 -486c-69.333 210.667 -115 346 -137 406s-30.333 90 -25 90l394 534h421c29.333 -84.667 66.5 -199.834 111.5 -345.501s80.667 -281.167 107 -406.5l84.5 -384
c30 -130.667 68.667 -358 116 -682z" />
    <glyph glyph-name="two" unicode="2" horiz-adv-x="1640" 
d="M473 1801c402.667 0 632.999 -7.16406 690.999 -21.4971s112.333 -39.666 163 -75.999s114.667 -153.166 192 -350.499s79.666 -321.333 6.99902 -372s-208 -127.834 -406 -231.501s-292.667 -178.334 -284 -224.001s15.334 -76.167 20.001 -91.5s9 -31.833 13 -49.5
s313 -23.834 927 -18.501l56 -372h-1435l-73 463c-19.333 116.667 -21.666 194.167 -6.99902 232.5s136.5 128.166 365.5 269.499s356.5 222.166 382.5 242.499s19.333 67.5 -20 141.5s-87.5 113.167 -144.5 117.5s-137.5 6.5 -241.5 6.5s-150.5 -25.667 -139.5 -77
s25.833 -106.666 44.5 -165.999h-463l-105 289c-28 65.333 -5.66699 128.666 67 189.999s168.5 93 287.5 95s153.167 3 102.5 3z" />
    <glyph glyph-name="three" unicode="3" horiz-adv-x="1637" 
d="M1208 1030c99.333 -45.333 176.662 -92.0039 231.995 -140.004s96.166 -140.167 122.499 -276.5s38.333 -239.833 36 -310.5s-35.166 -135.5 -98.499 -194.5s-131.166 -93.333 -203.499 -103s-389.166 -12.167 -950.499 -7.5c-12.667 157.333 -24.667 277.333 -36 360
c570 -24.667 853.333 15.5 850 120.5s-45.5 178 -126.5 219s-165.5 63.833 -253.5 68.5l-239 23l-70 349c260 16.667 397.833 61.334 413.5 134.001s-1.16602 120.5 -50.499 143.5s-115.166 40.5 -197.499 52.5s-244.833 10.667 -487.5 -4l-119 334l462 8
c380.667 9.33301 601.834 -13.667 663.501 -69s111.834 -135.166 150.501 -239.499s53.5 -184.166 44.5 -239.499s-33.833 -107.166 -74.5 -155.499s-63.334 -72.5 -68.001 -72.5z" />
    <glyph glyph-name="four" unicode="4" horiz-adv-x="1614" 
d="M1072 1791c61.333 -177.333 114.667 -345.667 160 -505l105 -361h314c55.333 -151.333 89 -254.833 101 -310.5s15.333 -83.5 10 -83.5h-311l65 -312l41 -228h-457l-107 540h-734c-33.333 141.333 -68 263.333 -104 366l468 893zM895.001 937.999l-89 327l-189 -324z" />
    <glyph glyph-name="five" unicode="5" horiz-adv-x="1691" 
d="M633 1799l738.003 0.000976562l126 -344h-891l101 -274c274 0 467.333 -11.333 580 -34s212.667 -74.5 300 -155.5s142.666 -242.167 165.999 -483.5s-11.5 -382.833 -104.5 -424.5s-194.333 -67.5 -304 -77.5s-246.834 -15 -411.501 -15h-480l-31 297l-18 98
c383.333 -9.33301 621.166 -4.5 713.499 14.5s142.833 61.667 151.5 128s3.16699 118.166 -16.5 155.499s-53.167 70 -100.5 98s-118 42 -212 42h-624c-46 176.667 -93.167 328.5 -141.5 455.5l-122.5 324.5c-33.333 89.333 -59 154.333 -77 195h658z" />
    <glyph glyph-name="six" unicode="6" horiz-adv-x="1554" 
d="M674 1798l492.001 -0.00488281l-347 -614c201.333 -9.33301 348.333 -26.166 441 -50.499s171.5 -81.333 236.5 -171s113.667 -187.334 146 -293.001s31.666 -219.167 -2.00098 -340.5s-101.667 -206.166 -204 -254.499s-209.333 -75 -321 -80s-226.667 -4.66699 -345 1
s-210 39.834 -275 102.501s-120 143.167 -165 241.5s-74.5 180.333 -88.5 246s-24 143.834 -30 234.501s6.66699 168.834 38 234.501s170 315.834 416 750.501zM868.001 844.995c-96.667 0 -162.667 -19.832 -198 -59.499s-29 -124.334 19 -254.001
s139.5 -195.667 274.5 -198s217.167 43.667 246.5 138s28 171 -4 230s-72.167 97.833 -120.5 116.5s-120.833 27.667 -217.5 27z" />
    <glyph glyph-name="seven" unicode="7" horiz-adv-x="1777" 
d="M-12 1804h676h668h91c73.333 -167.333 119 -275 137 -323l27 -72l-403 -1413h-535l400 1405l-892 -1l-111.5 255.5c-25 58.333 -44.167 107.833 -57.5 148.5z" />
    <glyph glyph-name="eight" unicode="8" horiz-adv-x="1746" 
d="M631 1804c380 0 599.331 -18.9971 657.998 -56.9971s107.667 -98.833 147 -182.5s75.666 -172.334 108.999 -266.001s40.166 -160.667 20.499 -201s-57.5 -78.833 -113.5 -115.5c100 -24.667 167.5 -62.167 202.5 -112.5s66.5 -127.5 94.5 -231.5
s46.833 -187.667 56.5 -251s14.834 -114 15.501 -152s-9.83301 -72.167 -31.5 -102.5s-55.667 -56.833 -102 -79.5s-97.666 -37.834 -153.999 -45.501s-222.166 -11.167 -497.499 -10.5c-182.667 3.33301 -322 19.166 -418 47.499s-162.833 71.666 -200.5 129.999
s-66.334 148.333 -86.001 270s-35.5 215 -47.5 280s-5.66699 114.833 19 149.5s53.334 64.667 86.001 90c-106.667 26.667 -176.167 72.834 -208.5 138.501s-68.5 159.667 -108.5 282s-61.333 206.333 -64 252s10.5 81.167 39.5 106.5s61.333 41.833 97 49.5
s197.834 11.5 486.501 11.5zM748.998 584.003c24.667 -125.333 56.6699 -197.168 96.0029 -215.501s100.5 -27.5 183.5 -27.5h209.5c56.667 0 87.167 20.333 91.5 61s-6.83398 105.5 -33.501 194.5s-70.334 139.667 -131.001 152s-151.334 19.333 -272.001 21
s-168.667 -60.166 -144 -185.499zM519.001 1382c24.667 -82 56.833 -128.5 96.5 -139.5s100.834 -16.5 183.501 -16.5h209.5c57 0 87.167 12 90.5 36s-7.83398 65.167 -33.501 123.5s-62 92 -109 101s-137.833 14.5 -272.5 16.5s-189.667 -38.333 -165 -121z" />
    <glyph glyph-name="nine" unicode="9" horiz-adv-x="1570" 
d="M1182 -2l-498.002 0.00488281l331 614c-204 9.33301 -353.333 26.166 -448 50.499s-176.334 81.333 -245.001 171s-121 187.334 -157 293.001s-39.167 219.167 -9.5 340.5s95.667 206.166 198 254.499s210 75 323 80s228.167 1.16699 345.5 -11.5
s211.166 -46.834 281.499 -102.501s129.833 -132.667 178.5 -231s81.334 -180.333 98.001 -246s25.834 -143.834 27.501 -234.501s-8.66602 -168.834 -30.999 -234.501s-151.166 -315.834 -386.499 -750.501zM956.998 966.005c105.333 -2 166.669 18.168 184.002 60.501
s0.666016 126 -50.001 251s-140.667 191 -270 198s-207.333 -36.667 -234 -131s-22.834 -171 11.499 -230s76.333 -97.833 126 -116.5s127.167 -29.334 232.5 -32.001z" />
    <glyph glyph-name="colon" unicode=":" horiz-adv-x="839" 
d="M242 1068l402 2l110 -324h-411zM422 326l410 -2l44 -327h-420l-35 308z" />
    <glyph glyph-name="semicolon" unicode=";" horiz-adv-x="3549" 
d="M295 1825c456 -4.66699 767.832 -9.66406 935.499 -14.9971s271.667 -17.333 312 -36s83 -44.167 128 -76.5s85.667 -89.666 122 -171.999s69.5 -176 99.5 -281s48.167 -176 54.5 -213s4.5 -84.167 -5.5 -141.5s-80.333 -119.333 -211 -186
c282.667 -162 504.667 -309.333 666.001 -442l21 -278l-490 1c-242.667 215.333 -487.334 383.666 -734.001 504.999c9.33301 -60.667 33.666 -228.667 72.999 -504h-530c-24 251.333 -46.667 447.666 -68 588.999s-49.166 281.166 -83.499 419.499
s-77.166 280.666 -128.499 426.999s-105 280.833 -161 403.5zM1094 955.003c140.667 0 231.502 5.83496 272.502 17.502s64.667 34.167 71 67.5s6.5 63.166 0.5 89.499s-24.833 78.666 -56.5 156.999s-70.334 129.333 -116.001 153s-160.167 35.5 -343.5 35.5
c57.333 -128.667 114.666 -302 171.999 -520zM2369 180.005c-4.66699 74.667 -17 179.498 -37 314.498s-44.833 262.5 -74.5 382.5s-64 242.333 -103 367s-99.5 307 -181.5 547h463l830 -1c83.333 -165.333 136.333 -292.666 159 -381.999l-845 7
c44 -119.333 77.667 -219.333 101 -300l844 -7c30.667 -105.333 58 -227.666 82 -366.999h-845c34 -199.333 52 -324 54 -374l864 -7c11.333 -124.667 18 -249.667 20 -375h-1316z" />
    <glyph glyph-name="less" unicode="&#x3c;" horiz-adv-x="1898" 
d="M151 1341l118 -169.999l680 3l168.5 -363.5c60.333 -129.667 99.833 -250.834 118.5 -363.501l-684 2l59 -213l-605 599zM1349 1169c60.667 -116 115 -232.332 163 -348.999s85.333 -241 112 -373h-274c-2.66699 89.333 -45.667 223.166 -129 401.499
s-136.333 286.833 -159 325.5zM1740 451.002c-18 85.333 -38.667 163.666 -62 234.999s-98 233 -224 485l190 -2c66 -117.333 106.167 -193.166 120.5 -227.499l89.5 -214.5c45.333 -108.667 70.333 -200.667 75 -276h-189zM2057 451.002
c-16 85.333 -35.8311 160.334 -59.498 225.001s-48.5 123.5 -74.5 176.5l-157 308.5h130c26 -32.667 52.667 -76 80 -130s44.666 -89.5 51.999 -106.5s20.333 -43.333 38.999 -79c18.667 -35.667 60.334 -166.834 125 -393.501zM2284 458.003
c-10 54.667 -17.167 92.667 -21.5 114s-12.333 48 -24 80s-27 77.667 -46 137s-78.833 181.333 -179.5 366l82 3c75.333 -116.667 123.5 -207 144.5 -271s45.333 -133.167 73 -207.5s43.167 -148.5 46.5 -222.5z" />
    <glyph glyph-name="equal" unicode="=" horiz-adv-x="2020" 
d="M375 783h1458c23.333 -100 40.666 -185.833 51.999 -257.5s16.666 -109.5 15.999 -113.5h-1473c-8.66699 134.667 -19.667 230.167 -33 286.5zM214.002 1272l1466 0.000976562l30.5 -62.5c20.333 -41.667 51.833 -134.834 94.5 -279.501h-1465
c-24 95.333 -59.333 200 -106 314z" />
    <glyph glyph-name="greater" unicode="&#x3e;" horiz-adv-x="1828" 
d="M1762 1335l513.001 -491l-207 -573l-59 170h-606c-30 182.667 -56.333 312.667 -79 390s-64.334 190 -125.001 338l607 3zM1075 1170c45.333 -111.333 86.668 -225.668 124.001 -343.001s58.666 -244.333 63.999 -381l-254 1c3.33301 97.333 -28.5 235.833 -95.5 415.5
s-104.833 281.834 -113.5 306.501zM693.003 455.998c-6 96.667 -17.5 180.667 -34.5 252s-72.167 225 -165.5 461l183 1c50 -106.667 80.333 -177.167 91 -211.5l69 -215.5c35.333 -109.333 51 -206.333 47 -291zM436.003 461.998
c-5.33301 97.333 -16.832 178.168 -34.499 242.501s-37 123.166 -58 176.499l-111.5 286l132 4c15.333 -28 32.833 -67.5 52.5 -118.5s32.5 -85.167 38.5 -102.5s23.167 -62.5 51.5 -135.5s51.166 -190.833 68.499 -353.5zM269.004 462
c-5.33301 62.667 -16.166 121.834 -32.499 177.501l-51 172.5c-17.667 59.333 -68.834 175.333 -153.501 348l73 2c66.667 -104.667 109.667 -189.334 129 -254.001s42.333 -134 69 -208s40.667 -153.667 42 -239z" />
    <glyph glyph-name="question" unicode="?" horiz-adv-x="1542" 
d="M-35 1797c116 -4.66699 298.332 -4.49902 546.999 0.500977s409.5 3.83301 482.5 -3.5s139.167 -25.333 198.5 -54s100.666 -63.334 123.999 -104.001s56.333 -110.334 99 -209.001s83.334 -221.167 122.001 -367.5s56.5 -244.166 53.5 -293.499s-9 -85.5 -18 -108.5
s-49.5 -45.5 -121.5 -67.5l-789 -1c-16.667 84 -44 204.667 -82 362h545c-37.333 138 -93.666 293.333 -168.999 466h-821l-171 388v-8zM700.999 351.001l424 -2l27 -354h-433l-20 334z" />
    <glyph glyph-name="at" unicode="@" horiz-adv-x="2192" 
d="M1227 934c36 2 62 -5.83203 78 -23.499s25 -43.334 27 -77.001s-6.83301 -55 -26.5 -64s-43.667 -13.5 -72 -13.5s-53.5 7.16699 -75.5 21.5s-34 36.5 -36 66.5s6 52 24 66s45 22 81 24zM798 1799c179.333 0 339.501 -1.16309 480.501 -3.49609
s240.5 -11.833 298.5 -28.5s107.333 -50.167 148 -100.5s87.834 -142.666 141.501 -276.999s94.667 -259.5 123 -375.5s29.666 -209 3.99902 -279s-86.167 -118.333 -181.5 -145s-191.666 -12 -288.999 44c-129.333 -74 -256.666 -98.5 -381.999 -73.5
s-195 111.167 -209 258.5h626c122 31.333 160.167 107.666 114.5 228.999s-84.334 219.5 -116.001 294.5s-66.334 126.833 -104.001 155.5s-108.5 43 -212.5 43s-223 1.16699 -357 3.5s-210.5 -7.33398 -229.5 -29.001s-16.167 -59 8.5 -112s57 -153.667 97 -302
s64 -292 72 -431s21.167 -240.667 39.5 -305s104.833 -98.833 259.5 -103.5h710l10 -267h-344.5h-387c-197.667 0 -323 6 -376 18s-98 31.167 -135 57.5s-60.5 64.666 -70.5 114.999s-20.833 149.833 -32.5 298.5s-30.5 285.167 -56.5 409.5s-59.667 248.833 -101 373.5
s-70.333 220.667 -87 288s-20.167 117.666 -10.5 150.999s36.667 57.166 81 71.499s200.166 21.5 467.499 21.5zM935.001 818.005c-28.667 164 9.5 263.167 114.5 297.5s204 38.833 297 13.5s151.667 -74 176 -146s33.5 -127 27.5 -165h-615z" />
    <glyph glyph-name="A" unicode="A" horiz-adv-x="1631" 
d="M1235 1802c50.667 -75.333 98.5 -153.504 143.5 -234.504s91.667 -182.167 140 -303.5s91.333 -250.333 129 -387s68.5 -267 92.5 -391s46 -287 66 -489h-453l-46 334l-37 160l-454 7l39 -243l11 -258h-466c-12 166.667 -27.667 307 -47 421s-41.166 226.5 -65.499 337.5
s-55.833 224.667 -94.5 341l-112.5 349.5c-36.333 116.667 -30.666 207.834 17.001 273.501s97.667 99.834 150 102.501s156.166 3.83398 311.499 3.50098s380.666 -8.16602 675.999 -23.499zM1174 868.996c-37.333 152 -68.167 256.832 -92.5 314.499l-130.5 299.5
c-229.333 15.333 -351.5 7.83301 -366.5 -22.5s-16.667 -75.666 -5 -135.999s59.167 -211.833 142.5 -454.5z" />
    <glyph glyph-name="B" unicode="B" horiz-adv-x="1587" 
d="M421 6c-24 260 -42.6641 437.665 -55.9971 532.998s-34.166 198.333 -62.499 309s-59 222.334 -92 335.001s-68.5 220.167 -106.5 322.5l-110 296.5l371 8c423.333 -6 670.166 -21.333 740.499 -46s123 -62 158 -112s61.667 -102.5 80 -157.5s31.666 -120 39.999 -195
s-14.167 -140.167 -67.5 -195.5c61.333 -30.667 109.166 -63.5 143.499 -98.5s64.666 -78.833 90.999 -131.5s51.333 -116.667 75 -192s44.5 -160.666 62.5 -255.999s22.5 -166.5 13.5 -213.5s-32.5 -93.167 -70.5 -138.5s-80.833 -70.5 -128.5 -75.5
s-181.5 -7.5 -401.5 -7.5h-519h-142zM638.003 1212c143.333 -4.66699 229 0.166016 257 14.499s51.833 34.666 71.5 60.999s26.167 55.833 19.5 88.5s-21 59 -43 79s-53.667 33.167 -95 39.5s-104.833 10.5 -190.5 12.5s-127.667 -1.16699 -126 -9.5
s14.5 -39.666 38.5 -93.999s46.667 -118.166 68 -191.499zM839.003 329.998c124 0 221 2.33301 291 7s107.167 32.834 111.5 84.501s-2.16699 107.167 -19.5 166.5s-38.5 104.666 -63.5 135.999s-67.5 50.5 -127.5 57.5s-122.333 9.33301 -187 7s-95.167 -7 -91.5 -14
s13.5 -50.167 29.5 -129.5s35 -184.333 57 -315z" />
    <glyph glyph-name="C" unicode="C" horiz-adv-x="1501" 
d="M1230 1793l106.002 -266.998l20 -63l12 -46c-226 5.33301 -398.167 8 -516.5 8s-184.5 -5.16699 -198.5 -15.5s-22.5 -28 -25.5 -53s3.33301 -69 19 -132s37.167 -144 64.5 -243s49 -182.167 65 -249.5s29.167 -116.833 39.5 -148.5s19.666 -54.334 27.999 -68.001
s29.5 -34.667 63.5 -63s82.333 -42.5 145 -42.5h615l30 -138l31 -278h-968h-67.5c-38.333 0 -89.333 20.5 -153 61.5s-104.834 84.167 -123.501 129.5s-37.5 120.166 -56.5 224.499s-46.5 228.833 -82.5 373.5s-69.167 266.667 -99.5 366l-76.5 244l-43.5 133
c-8.33301 25.333 -16.5 54.5 -24.5 87.5s7.83301 73.667 47.5 122s98 73.833 175 76.5s197.167 2.66699 360.5 0s368 -9 614 -19z" />
    <glyph glyph-name="D" unicode="D" horiz-adv-x="1824" 
d="M44 1788l-14.001 21.9961h562c408.667 -14.667 633 -27.167 673 -37.5s76 -26.666 108 -48.999s65.833 -57.5 101.5 -105.5s73.167 -107.167 112.5 -177.5s81.5 -165.666 126.5 -285.999s88.667 -262.166 131 -425.499s68.833 -267.666 79.5 -312.999
s15 -86.833 13 -124.5s-7.83301 -76.667 -17.5 -117s-27.5 -73 -53.5 -98s-63.667 -45 -113 -60s-453.666 -24.833 -1213 -29.5c-24.667 220 -50.5 384.333 -77.5 493l-85.5 339.5c-30 117.667 -72.833 253.167 -128.5 406.5zM986.999 398.996
c230.667 0 359.668 4.66797 387.001 14.001s45.5 26.833 54.5 52.5s2.16699 81.167 -20.5 166.5l-68.5 251.5c-23 82.333 -53.5 163.166 -91.5 242.499s-70.833 141 -98.5 185s-56.834 79 -87.501 105s-76.5 41.333 -137.5 46s-160.5 7 -298.5 7
c53.333 -107.333 92.333 -189 117 -245s49 -115.333 73 -178s48.833 -133.667 74.5 -213s46.667 -154 63 -224s27.5 -140 33.5 -210z" />
    <glyph glyph-name="E" unicode="E" horiz-adv-x="1635" 
d="M441 4c-14.667 199.333 -32 366.498 -52 501.498s-44.833 262.5 -74.5 382.5s-64 242.333 -103 367s-99.5 307 -181.5 547h463l830 -1c83.333 -165.333 136.333 -292.666 159 -381.999l-845 7c44 -119.333 77.667 -219.333 101 -300l844 -7
c30.667 -105.333 58 -227.666 82 -366.999h-845c34 -199.333 52 -324 54 -374l864 -7c11.333 -124.667 18 -249.667 20 -375h-1316v8z" />
    <glyph glyph-name="F" unicode="F" horiz-adv-x="1695" 
d="M438 -11c-3.33301 110 -7.16699 189.832 -11.5 239.499s-17.166 142 -38.499 277s-47.833 262.5 -79.5 382.5s-68 242.333 -109 367l-176.5 540c306 0 743.667 -0.333008 1313 -1c77.333 -160.667 130 -285.667 158 -375l-862 7
c45.333 -119.333 80.666 -219.333 105.999 -300l862 -7c32 -105.333 60.667 -227.666 86 -366.999h-862c32 -204 50.333 -325.833 55 -365.5s15.667 -172.167 33 -397.5h-474z" />
    <glyph glyph-name="G" unicode="G" horiz-adv-x="1729" 
d="M1322 1785l118 -265.997l22 -62l14 -46c-262 5.33301 -467.167 10.333 -615.5 15s-226 -13 -233 -53s6 -91.333 39 -154s65.5 -143.334 97.5 -242.001s57.167 -181.5 75.5 -248.5s33.333 -116.167 45 -147.5s21.834 -53.833 30.501 -67.5s18.834 -27.334 30.501 -41.001
s30.334 -27.834 56.001 -42.501s58.5 -23.167 98.5 -25.5s91.333 -3.33301 154 -3s81.334 43.833 56.001 130.5c-12.667 46.667 -27.834 74.834 -45.501 84.501s-70.167 14.834 -157.5 15.501l-96 343c87.333 2 160.666 3 219.999 3s121.166 -0.666992 185.499 -2
s141.833 -3.33301 232.5 -6c90.667 -249.333 140.5 -408 149.5 -476s27.333 -157.5 55 -268.5s3.33398 -177.333 -72.999 -199s-250 -32.5 -521 -32.5h-417h-70.5c-40 0 -79.667 5.16699 -119 15.5s-73 30.666 -101 60.999s-52.667 68.166 -74 113.499
s-43.5 119.833 -66.5 223.5s-55.333 227.667 -97 372s-79.834 265.833 -114.501 364.5l-87 242.5c-23.333 63 -40.833 107.167 -52.5 132.5s-20.834 54.5 -27.501 87.5s10 73.5 50 121.5s99.833 73.333 179.5 76s205.167 2.66699 376.5 0s399 -9 683 -19z" />
    <glyph glyph-name="H" unicode="H" horiz-adv-x="1841" 
d="M502 -5c-18.667 217.333 -37 379.168 -55 485.501s-43.167 216.333 -75.5 330s-67 228.667 -104 345s-73.5 220 -109.5 311l-128 334.5h342h182l-23 -1c78 -161.333 132.833 -282.5 164.5 -363.5s69.167 -187.167 112.5 -318.5l425 -8
c-57.333 167.333 -111 306.5 -161 417.5s-96.333 202.167 -139 273.5l510 -1c91.333 -176.667 157.333 -315.5 198 -416.5s80.667 -213.5 120 -337.5s73.833 -244.167 103.5 -360.5s52.167 -226.333 67.5 -330s24.333 -226.5 27 -368.5h-486
c-25.333 197.333 -45.833 342.833 -61.5 436.5s-38.5 196.167 -68.5 307.5l-425 7c20.667 -100.667 36.5 -195.334 47.5 -284.001s23.5 -241.667 37.5 -459h-493h-8z" />
    <glyph glyph-name="I" unicode="I" horiz-adv-x="929" 
d="M546 -6c-4.66699 146.667 -16.165 269.333 -34.498 368s-40.333 198.5 -66 299.5s-55.834 209.667 -90.501 326s-72.334 227.666 -113.001 333.999s-77.167 197.5 -109.5 273.5s-66.5 149.333 -102.5 220l494 -8c100 -217.333 174.833 -388 224.5 -512
s95.5 -263.167 137.5 -417.5s73.5 -297.166 94.5 -428.499s38.167 -283 51.5 -455h-486z" />
    <glyph glyph-name="J" unicode="J" horiz-adv-x="1513" 
d="M689 1803l492.999 0.000976562c75.333 -146.667 142.833 -299.667 202.5 -459s111.834 -312.333 156.501 -459s79.334 -290.834 104.001 -432.501s35.167 -230.167 31.5 -265.5s-17.667 -67 -42 -95s-56.833 -49.5 -97.5 -64.5s-86.5 -25.167 -137.5 -30.5
s-223.167 -8 -516.5 -8c-212.667 0 -332.667 6 -360 18s-48.833 30.167 -64.5 54.5s-27.334 47.5 -35.001 69.5s-21.167 78 -40.5 168s-54 223 -104 399c140 -6.66699 286.667 -6.66699 440 0l76 -239.5c16.667 -50.333 41.667 -76.666 75 -78.999s75.5 -3.33301 126.5 -3
s86.667 5.66602 107 15.999s31.333 40.5 33 90.5s-9.83301 119.167 -34.5 207.5s-57.5 192 -98.5 311s-82 229.167 -123 330.5l-110.5 266c-32.667 76 -59.667 144.333 -81 205z" />
    <glyph glyph-name="K" unicode="K" horiz-adv-x="1959" 
d="M484 2c-20.667 222.667 -41.666 403.67 -62.999 543.003s-54.833 279.833 -100.5 421.5l-147 440.5c-52.333 152 -106.166 286 -161.499 402h528c87.333 -187.333 150.166 -329 188.499 -425s66.166 -169.333 83.499 -220l26 -76l230 721h520l-291 -903
c216.667 -162 358 -283.5 424 -364.5s128 -163.333 186 -247s109.333 -183.834 154 -300.501h-545c-75.333 136.667 -151.166 245.5 -227.499 326.5s-138.333 143 -186 186s-68.834 62.167 -63.501 57.5l-122 91c32 -146.667 53 -259.334 63 -338.001
s20.667 -186.334 32 -323.001h-520z" />
    <glyph glyph-name="L" unicode="L" horiz-adv-x="1849" 
d="M524 -12c-26 268.667 -50.002 459.999 -72.002 573.999s-53.167 243 -93.5 387s-86.166 280.667 -137.499 410l-130.5 319l-60.5 141l500 -8c74 -136.667 135.667 -264.5 185 -383.5s92.333 -236.667 129 -353s70.667 -235.333 102 -357s52.333 -228.167 63 -319.5
l926 -7c18.667 -121.333 29.334 -250.666 32.001 -387.999l-9 -7h-1419z" />
    <glyph glyph-name="M" unicode="M" horiz-adv-x="2009" 
d="M481 3c-14 222.667 -33.1689 395.998 -57.502 519.998s-54.666 251.833 -90.999 383.5s-80.166 268.334 -131.499 410.001s-98.5 259.334 -141.5 353.001s-62.5 138.167 -58.5 133.5h547l471 -440l145 447l508 -7c88 -167.333 156 -324.333 204 -471l105 -322.5
c22 -68.333 52.833 -214 92.5 -437s62.834 -415.5 69.5 -577.5h-456c-30.667 288.667 -63 495 -97 619s-92.667 296.667 -176 518l-230 -407l-428 374c70 -229.333 114.667 -403.5 134 -522.5s34.333 -244.333 45 -376s12.667 -200.167 6 -205.5h-453l7 -7v0z" />
    <glyph glyph-name="N" unicode="N" horiz-adv-x="1807" 
d="M496 3l-13.502 171c-9 114 -26 243.167 -51 387.5s-60.167 289.833 -105.5 436.5s-88.666 280.667 -129.999 402s-80.333 220 -117 296s-52.334 114 -47.001 114h420l858 -941c-73.333 252.667 -137 446 -191 580s-107.667 254.333 -161 361h509
c104 -238 172.667 -400 206 -486s68 -188.667 104 -308s71.833 -277.5 107.5 -474.5s58.834 -379.167 69.501 -546.5l-396 1l-646 679c24.667 -226 41.834 -369.333 51.501 -430s16.5 -144 20.5 -250h-480z" />
    <glyph glyph-name="O" unicode="O" horiz-adv-x="1841" 
d="M866 478c1.33301 -6 5.99316 -20.334 13.9932 -43.001s20.167 -43.667 36.5 -63s40 -29 71 -29s91 -0.833008 180 -2.5s143.333 -1.66699 163 0s34.834 11.667 45.501 30s17.167 39.333 19.5 63s-2.16699 62 -13.5 115s-25.666 114.833 -42.999 185.5
s-40.5 155.834 -69.5 255.501s-59.333 195.334 -91 287.001s-60.5 151.167 -86.5 178.5s-57.667 41.833 -95 43.5s-93.666 2.5 -168.999 2.5s-126.166 -0.833008 -152.499 -2.5s-43.666 -10.834 -51.999 -27.501s-9 -38.334 -2 -65.001s27.333 -91.5 61 -194.5
s59.334 -186.667 77.001 -251s32.334 -122.166 44.001 -173.499s32.5 -154.333 62.5 -309zM400.993 211.999c-30 242.667 -52.6777 404.501 -68.0107 485.501s-36.666 172.167 -63.999 273.5s-70.666 233 -129.999 395s-94.166 264.167 -104.499 306.5
s-0.166016 76.5 30.501 102.5s83.834 40.333 159.501 43s221.667 4 438 4s377.833 -1.33301 484.5 -4s192.334 -25.5 257.001 -68.5s126 -136.667 184 -281s110.333 -294.833 157 -451.5s81.834 -290.834 105.501 -402.501s41.834 -209.167 54.501 -292.5
s11.5 -143.5 -3.5 -180.5s-40.833 -70 -77.5 -99s-83.667 -44.667 -141 -47s-213.666 -2.33301 -468.999 0s-427.166 3.5 -515.499 3.5s-152.666 15.167 -192.999 45.5s-68 63.333 -83 99s-22.167 58.5 -21.5 68.5z" />
    <glyph glyph-name="P" unicode="P" horiz-adv-x="1670" 
d="M491 -7c-20 187.333 -39.998 345.5 -59.998 474.5s-50.167 272 -90.5 429s-85 301.333 -134 433l-125 334c-34.333 91 -51.5 134.167 -51.5 129.5h901c228 0 375.833 -26.667 443.5 -80s119.667 -125.5 156 -216.5s73.666 -200.167 111.999 -327.5
s61.666 -210 69.999 -248s13.833 -78 16.5 -120s-9.33301 -82.5 -36 -121.5s-60 -65.833 -100 -80.5s-267 -20 -681 -16l56 -393l12 -197h-475h-14zM653.002 1459c52 -127.333 93.334 -242.832 124.001 -346.499s50.334 -162.834 59.001 -177.501h413
c9.33301 0 15.666 13 18.999 39s-13.834 88.667 -51.501 188l-83 219.5c-17.667 47 -45.667 74.167 -84 81.5s-170.5 8.33301 -396.5 3v-7z" />
    <glyph glyph-name="Q" unicode="Q" horiz-adv-x="1749" 
d="M1671 272l83.999 -119.998l73 -164h-338l-24 66c-178.667 -44 -369.334 -66 -572.001 -66s-333.167 24.167 -391.5 72.5s-94.666 130.666 -108.999 246.999s-29 222.666 -44 318.999s-40.833 207.666 -77.5 333.999s-75 242.666 -115 348.999l-107 277.5
c-31.333 78.667 -24.666 134.334 20.001 167.001s120.167 49 226.5 49h482c215 0 351.5 -1.16699 409.5 -3.5s120 -28.833 186 -79.5s118 -124.167 156 -220.5s83.167 -224.166 135.5 -383.499s81.833 -324.333 88.5 -495s-21 -287 -83 -349zM1300 412.002l-99.999 251.001
l129 48c-30 88 -60.333 183.167 -91 285.5s-62.5 200.5 -95.5 294.5s-62.667 155 -89 183s-58.333 42.833 -96 44.5s-94.167 2.5 -169.5 2.5s-126 -0.833008 -152 -2.5s-43 -11 -51 -28s-8.5 -39.333 -1.5 -67s28.167 -94.334 63.5 -200.001s62.5 -191.5 81.5 -257.5
s34.667 -125.333 47 -178s26.666 -118.5 42.999 -197.5s24.666 -120.167 24.999 -123.5s4.83301 -16.5 13.5 -39.5s21.334 -44.5 38.001 -64.5s40.5 -30 71.5 -30s80.667 10 149 30s129.833 36.333 184.5 49z" />
    <glyph glyph-name="R" unicode="R" horiz-adv-x="1843" 
d="M30 1825c456 -4.66699 767.832 -9.66406 935.499 -14.9971s271.667 -17.333 312 -36s83 -44.167 128 -76.5s85.667 -89.666 122 -171.999s69.5 -176 99.5 -281s48.167 -176 54.5 -213s4.5 -84.167 -5.5 -141.5s-80.333 -119.333 -211 -186
c255.333 -202.667 447.333 -444.334 576 -725.001h-530c-95.333 143.333 -178.333 249.5 -249 318.5s-185 146.833 -343 233.5c15.333 -88 42.666 -269.667 81.999 -545h-530c-24 251.333 -46.667 447.666 -68 588.999s-49.166 281.166 -83.499 419.499
s-77.166 280.666 -128.499 426.999s-105 280.833 -161 403.5zM828.999 955.003c140.667 0 231.502 5.83496 272.502 17.502s64.667 34.167 71 67.5s6.5 63.166 0.5 89.499s-24.833 78.666 -56.5 156.999s-70.334 129.333 -116.001 153s-160.167 35.5 -343.5 35.5
c57.333 -128.667 114.666 -302 171.999 -520z" />
    <glyph glyph-name="S" unicode="S" horiz-adv-x="1733" 
d="M956 1803c165.333 0 286.671 -21.5 364.004 -64.5s132.333 -102.333 165 -178s63.667 -159.167 93 -250.5l-474 -7c-43.333 100.667 -105.666 157 -186.999 169s-156.833 15.667 -226.5 11s-102.334 -23.667 -98.001 -57s18.333 -82.833 42 -148.5s47 -111.167 70 -136.5
s55.167 -45.666 96.5 -60.999s122.166 -23 242.499 -23s245.166 -9.66699 374.499 -29s218.333 -76 267 -170s86.167 -220.333 112.5 -379s29.666 -270.167 9.99902 -334.5s-107.834 -117.833 -264.501 -160.5h-572c-367.333 -14 -571 121.333 -611 406l-11 170h450
c14 -86 27.5 -140.667 40.5 -164s28.167 -41.333 45.5 -54s144.333 -19 381 -19c88.667 18 119.834 84.333 93.501 199s-71.5 179.5 -135.5 194.5s-157.333 25.167 -280 30.5l-345 15.5c-107.333 5 -190.5 30.167 -249.5 75.5s-107.333 129.166 -145 251.499
s-71.334 227.5 -101.001 315.5l-66 200.5c-14.333 45.667 -4 86.167 31 121.5s85.333 58 151 68s191.167 15 376.5 15s305.333 -2.33301 360 -7z" />
    <glyph glyph-name="T" unicode="T" horiz-adv-x="1713" 
d="M1508 1803c73.333 -170 119.164 -278.833 137.497 -326.5l27.5 -71.5h-540c72.667 -189.333 127.834 -342.833 165.501 -460.5s70.5 -232.834 98.5 -345.501s63.333 -316 106 -610h-499c-61.333 339.333 -118.666 616 -171.999 830s-122.666 407.333 -207.999 580h-447
c-78 184.667 -138 319.334 -180 404.001h76h1435z" />
    <glyph glyph-name="U" unicode="U" horiz-adv-x="1830" 
d="M30 1807l493.002 7.00098c83.333 -152.667 146 -290.834 188 -414.501s80 -245.167 114 -364.5s62.5 -246 85.5 -380s50 -213.667 81 -239s68.167 -39.166 111.5 -41.499s90.333 -3.5 141 -3.5s93.834 5 129.501 15s42.167 82 19.5 216s-70.167 305 -142.5 513
s-170.833 438.333 -295.5 691h516c173.333 -444.667 279.666 -727.334 318.999 -848.001s72.666 -267.667 99.999 -441s9.5 -301.833 -53.5 -385.5s-183.167 -125.5 -360.5 -125.5s-349.5 -1.33301 -516.5 -4s-286.167 16.333 -357.5 57s-112.833 118 -124.5 232
s-28.667 225.333 -51 334s-44 203.5 -65 284.5s-56 186 -105 315s-87.833 236.667 -116.5 323s-65.334 172.833 -110.001 259.5z" />
    <glyph glyph-name="V" unicode="V" horiz-adv-x="1699" 
d="M30 1804l507.002 -0.999023c72 -151.333 145 -327 219 -527s147 -479.667 219 -839c75.333 252 114.833 439 118.5 561s1 243.833 -8 365.5s-24.833 268.5 -47.5 440.5h521c19.333 -136.667 33.166 -269.667 41.499 -399s7.5 -281.333 -2.5 -456s-48.5 -353 -115.5 -535
s-137.833 -321.333 -212.5 -418h-666c-52.667 253.333 -114.334 504 -185.001 752s-136.5 448 -197.5 600l-138 338c-31 73.333 -46.5 107.666 -46.5 102.999z" />
    <glyph glyph-name="W" unicode="W" horiz-adv-x="1957" 
d="M1601 1810c108 -222.667 179.833 -397.333 215.5 -524s69.334 -258.667 101.001 -396s57 -276.833 76 -418.5s32.167 -300.5 39.5 -476.5l-483 -1l-414 316l-251 -317l-439 6c-18 164 -39.333 320.667 -64 470l-54.5 322.5c-11.667 65.667 -34.334 161.667 -68.001 288
s-65.5 239.166 -95.5 338.499s-74.667 230 -134 392h456c84 -206 152.833 -387.5 206.5 -544.5s100.5 -366.167 140.5 -627.5l209 368l435 -390c-68.667 289.333 -122.5 494.833 -161.5 616.5s-119.833 316.834 -242.5 585.501h520l-7 7v0z" />
    <glyph glyph-name="X" unicode="X" horiz-adv-x="1655" 
d="M30 1791h533l287 -403l130 411h494l-268 -914l639 -894h-524l-298 432l-135 -432h-445l166 614l73 282z" />
    <glyph glyph-name="Y" unicode="Y" horiz-adv-x="1691" 
d="M1467 -4l-68.0029 501.999c-187.333 126.667 -337.5 231.5 -450.5 314.5l-306.5 223.5c-91.333 66 -211.5 169 -360.5 309s-255.833 288.333 -320.5 445h457c174.667 -203.333 465 -454 871 -752c-33.333 156.667 -102.666 409.667 -207.999 759h464
c90 -284 157.833 -508.167 203.5 -672.5s86.334 -342.666 122.001 -534.999s60.834 -392.5 75.501 -600.5h-486z" />
    <glyph glyph-name="Z" unicode="Z" horiz-adv-x="1766" 
d="M1480 1819l170 -387l-626 -1025l873 -1l7 -57c4.66699 -38 10.667 -150.667 18 -338h-1443c-8 101.333 -19.667 223 -35 365l643 1041h-896c-44 90.667 -97.667 224.667 -161 402h1450z" />
    <glyph glyph-name="bracketleft" unicode="[" horiz-adv-x="2747" 
d="M2573 1003l272.001 -306l-440 -339l23 110l-1522 -10c7.33301 68.667 19.166 120.667 35.499 156l57.5 126.5c22 49 51.333 100.167 88 153.5l1457 9zM987.001 889c-16 -22 -50.835 -85.332 -104.502 -189.999s-77.5 -186.334 -71.5 -245.001h-207
c8.66699 83.333 28.334 159.5 59.001 228.5s65.334 137.167 104.001 204.5zM514.999 456.001l-145.001 -0.000976562c-3.33301 50 9.33398 107.167 38.001 171.5l56 126c8.66699 19.667 33 62.167 73 127.5l145 2c-78 -144.667 -124 -237.667 -138 -279
s-23.667 -90.666 -29 -147.999zM272.998 456h-102c33.333 140 56.333 220.5 69 241.5s21.167 36.167 25.5 45.5s14.5 29.166 30.5 59.499s33 54.833 51 73.5h97l-95.5 -175.5c-17 -31 -32.833 -65.167 -47.5 -102.5s-24 -84.666 -28 -141.999zM92.998 460l-60.998 -3.99902
c-3.33301 50 4.66699 96.833 24 140.5s36.166 84.167 50.499 121.5s43.166 85.666 86.499 144.999l66 2c-49.333 -61.333 -84 -119.333 -104 -174s-33.167 -91.5 -39.5 -110.5s-13.833 -59.167 -22.5 -120.5zM1225 542.001h64.998l12 29l15 52l3 9c56.667 0 88 1 94 3
s12.333 6.16699 19 12.5s11.167 12.666 13.5 18.999s4.16602 12.5 5.49902 18.5s3.83301 18.667 7.5 38s5.83398 36.333 6.50098 51s-1.83301 26.167 -7.5 34.5s-24.5 12.5 -56.5 12.5h-122c0.666992 0.666992 0.333984 -6.16602 -0.999023 -20.499
s-3.16602 -31.833 -5.49902 -52.5s-6 -43.167 -11 -67.5s-10.333 -46.5 -16 -66.5s-13.5 -44 -23.5 -72h2zM1344 769.001c31.333 2 48.834 1.66699 52.501 -1s5.5 -7 5.5 -13s-0.5 -15.5 -1.5 -28.5s-2.83301 -22.167 -5.5 -27.5s-6.83398 -8.5 -12.501 -9.5
s-22.167 -1.5 -49.5 -1.5c0 1.33301 1.16699 10 3.5 26s4.5 34.333 6.5 55h1zM1704 822.001c-38.667 2 -68.833 3.16504 -90.5 3.49805s-36.167 0.333008 -43.5 0s-16.333 -5.66602 -27 -15.999s-17.334 -24.666 -20.001 -42.999s-5.16699 -36.5 -7.5 -54.5
s-5.66602 -35.667 -9.99902 -53l-13.5 -52.5c-4.66699 -17.667 -11.667 -39.167 -21 -64.5h65l14 38l10 39l62 -1l-5 -25l-15 -51h62c10 30.667 17.5 55.667 22.5 75s9.33301 39.666 13 60.999s6.16699 41.333 7.5 60s1.83301 34.334 1.5 47.001s-1.83301 25 -4.5 37z
M1569 679.999c6 35.333 10.333 57.668 13 67.001s6 16.666 10 21.999s22 6.33301 54 3c-2 -22 -3.5 -37.5 -4.5 -46.5s-3.83301 -25.5 -8.5 -49.5l-65 1zM1725 539.001l75.9971 0.00292969c12.667 35.333 20.334 56.166 23.001 62.499s5.66699 15.5 9 27.5
c14 -16 23.333 -29.333 28 -40s8.33398 -27.667 11.001 -51h76c-4.66699 45.333 -14 84 -28 116c24 11.333 38.833 21.5 44.5 30.5s9.33398 16.333 11.001 22s4 16.834 7 33.501s5.16699 31.667 6.5 45s-1.5 24.166 -8.5 32.499s-35.5 13.166 -85.5 14.499h-97
c-0.666992 -18.667 -2.66699 -39.834 -6 -63.501s-7.83301 -46.5 -13.5 -68.5s-12.167 -44.167 -19.5 -66.5s-19.333 -53.833 -36 -94.5h2zM1846 697.004c0.666992 4 3.00098 13.499 7.00098 28.499s7.33301 32.167 10 51.5c25.333 0 41.166 -1.16699 47.499 -3.5
s8 -10.166 5 -23.499s-5 -21.833 -6 -25.5s-3.16699 -8.16699 -6.5 -13.5s-8.5 -9 -15.5 -11s-20.833 -3 -41.5 -3zM2047 832.003l-12 0.00195312v-20l-3 -43h72c0.666992 -32.667 -7.33301 -81.334 -24 -146.001l-24 -81h72c2.66699 6.66699 7.33398 20.167 14 40.5
c6.66699 20.333 11.834 39.5 15.5 57.5l11 55.5c3.66699 19 6.16699 43.5 7.5 73.5h73l1 11c0.666992 7.33301 2 24.666 4 51.999h-207z" />
    <glyph glyph-name="backslash" unicode="\" horiz-adv-x="1479" 
d="M1714 -4h-486l-1238 1813h493l1227 -1805z" />
    <glyph glyph-name="bracketright" unicode="]" horiz-adv-x="2674" 
d="M823 1803l212.001 -0.00195312h347c-8 -80.667 -19.333 -143 -34 -187h-366c-8.66699 -59.333 -19.334 -111.666 -32.001 -156.999h365l-18 -86l-36 -109h-354l-45 -154l-13 -40l347 -4l-38 -96l-46 -91h-536c45.333 104 78.166 190.333 98.499 259
s38.833 134.334 55.5 197.001s31.334 126.5 44.001 191.5s29 157.167 49 276.5zM106.001 1804l212.999 -0.000976562c4 -77.333 4 -167 0 -269s-22.333 -245 -55 -429c76 128.667 125.5 224.167 148.5 286.5s43.333 124.5 61 186.5s36.834 137 57.501 225h221
c-16.667 -69.333 -34.334 -137.166 -53.001 -203.499s-45.667 -144 -81 -233s-83.166 -179.833 -143.499 -272.5s-114.5 -163.667 -162.5 -213h-282c22.667 129.333 36.667 223.5 42 282.5s12 122.167 20 189.5s12.667 139.833 14 217.5s2 135 2 172
s-0.333008 54.833 -1 53.5zM2108 798.997l199 -0.000976562h325c-8.66699 -70 -20.334 -124 -35 -162h-343c-10.667 -51.333 -22.334 -96.666 -35.001 -135.999h343l-18 -74l-36 -94h-333l-45 -134l-13 -35l321 2l-33 -89l-44 -78h-505
c44.667 90 77.334 164.833 98.001 224.5s39.5 116.667 56.5 171s32 109.5 45 165.5s30.5 135.667 52.5 239zM1237 881.996c49.333 126.667 85.501 225.667 108.501 297s43 142 60 212s30.833 141.667 41.5 215s17.667 140 21 200h303c154.667 -4.66699 242.667 -20 264 -46
s30 -60.5 26 -103.5s-10.833 -90.333 -20.5 -142s-17.5 -86.667 -23.5 -105s-19.833 -46.166 -41.5 -83.499s-84.834 -70 -189.501 -98c82.667 -90.667 126 -207.334 130 -350.001h-216c-10 72.667 -22.667 126.5 -38 161.5s-44.333 77.833 -87 128.5
c-10.667 -40 -19.667 -69.667 -27 -89l-74 -197h-234h-3zM1616 1379c64 0 106.5 2.99902 127.5 8.99902s37 17 48 33s18.333 30.667 22 44s10 40.5 19 81.5s3.66699 65.833 -16 74.5s-68.5 11.334 -146.5 8.00098c-8 -60 -18 -113.667 -30 -161s-20 -77 -24 -89zM2609 1806
c75.333 0 125.501 -10.666 150.501 -31.999s36.5 -51.333 34.5 -90s-6.33301 -81 -13 -127h-207c16 61.333 2 92 -42 92h-115.5c-33 0 -51.667 -9.83301 -56 -29.5s-9.5 -44.834 -15.5 -75.501s-6.66699 -52.334 -2 -65.001s14.334 -23 29 -31
c14.667 -8 48.834 -10.167 102.5 -6.5c53.667 3.66699 99.667 -1.83301 138 -16.5s66.333 -45.167 84 -91.5s15.667 -110.833 -6 -193.5s-44 -140.167 -67 -172.5s-74.5 -59.5 -154.5 -81.5h-258c-169.333 -6.66699 -231.333 62 -186 206l32 86h204l-19 -65
c0.666992 -24 3.83398 -39.167 9.5 -45.5c5.66699 -6.33301 54.834 -7.83301 147.5 -4.5c50.667 5.33301 82 35.833 94 91.5s6.33301 90.834 -17 105.501s-62.166 20.5 -116.5 17.5c-54.333 -3 -104.666 -1.5 -151 4.5c-46.333 6 -78 20.5 -95 43.5s-18.667 66 -5 129
s24.334 115 32 156c7.66699 41 14.334 73.167 20 96.5c5.66699 23.333 18.334 44 38 62c19.667 18 45.5 29.333 77.5 34s89.667 7 173 7s136.666 -1.33301 159.999 -4zM1190 -12.0039c58.667 116.667 98.332 199.833 118.999 249.5s41.167 105.667 61.5 168
s36.5 121.5 48.5 177.5l44 215l200 1c-11.333 -76.667 -22.166 -141 -32.499 -193s-23 -103 -38 -153s-31.667 -101.5 -50 -154.5s-37.166 -99.167 -56.499 -138.5l391 3c-22.667 -52.667 -51.334 -109 -86.001 -169l-5 -2h-588z" />
    <glyph glyph-name="asciicircum" unicode="^" horiz-adv-x="3113" 
d="M370 414l1631 8.99805c40 60.667 72.333 118.334 97 173.001l64.5 141.5c18.333 39.667 32.166 97.834 41.5 174.501l-1688 -2l41 157l-523 -423l303 -342zM2113 427.998c17.333 25.333 54.666 101.5 112 228.5c57.333 127 85.333 212.833 84 257.5l233 2
c-10.667 -93.333 -33.167 -178.5 -67.5 -255.5s-73.166 -153.167 -116.5 -228.5zM2641 913.998h161c3.33301 -56 -11 -119.667 -43 -191l-62.5 -141c-9.66699 -22.667 -34.834 -72.667 -75.5 -150l-161 -1c82 165.333 131 271.333 147 318s27.333 101.667 34 165z
M2911 913.998l115 0.000976562c-38 -156.667 -64 -246.667 -78 -270s-23.667 -40.333 -29 -51l-34 -67c-17.333 -34 -36.333 -65.333 -57 -94h-108c52 104 87.333 173.333 106 208s36.334 73.167 53 115.5c16.667 42.333 27.334 95.166 32 158.499zM3112 909.999l65 -2
c0 -52 -9.5 -102.5 -28.5 -151.5l-52 -136.5c-15.667 -42 -47.834 -104.667 -96.5 -188l-73 -1c54.667 86 93.334 159.5 116 220.5c22.667 61 37.5 102.167 44.5 123.5s15.167 66.333 24.5 135zM599 534.999l34.501 67.5c9 18.333 18.167 38.5 27.5 60.5
s16.833 42.333 22.5 61l14 47.5c3.66699 13 5.16699 19.167 4.5 18.5h112c28 0 43.667 -3.66699 47 -11s3.33301 -17.5 0 -30.5s-8.33301 -28.667 -15 -47s-11.334 -30 -14.001 -35s-5.5 -10.667 -8.5 -17s-8 -12 -15 -17s-13.5 -8.66699 -19.5 -11s-34.667 -3.5 -86 -3.5
l-4 -6l-23 -48l-16 -29h-58h-3zM749.001 742.999c-4.66699 -18 -9.83398 -34.3311 -15.501 -48.998s-8.5 -23 -8.5 -25c24.667 0 39.834 0.666992 45.501 2s10.167 4.16602 13.5 8.49902s6.5 12.5 9.5 24.5l6.5 26.5c1.33301 5.66699 0.5 9.66699 -2.5 12
s-18.833 3.16602 -47.5 2.49902zM1085 791.001c0 -10 -1.00098 -20.832 -3.00098 -32.499s-5.33301 -26 -10 -43s-10.667 -35.333 -18 -55s-14.833 -38.167 -22.5 -55.5s-19.167 -40.333 -34.5 -69h-57l25 47l9 24h-56l-16 -34l-22 -37h-57
c13.333 23.333 23.833 43.166 31.5 59.499l21.5 47.5c6.66699 15.333 12.667 31.333 18 48l16.5 49.5c5.66699 16.333 14.5 29.333 26.5 39s21.333 14.667 28 15s19.334 0.333008 38.001 0s46 -1.5 82 -3.5zM935 660.002l60 -1c8.66699 21.333 14 36.166 16 44.499
s6.33301 22.5 13 42.5c-28 2.66699 -44.333 1.83398 -49 -2.49902s-9 -10.833 -13 -19.5s-12.667 -29.667 -26 -63zM1053 534.002c20 37.333 35 66.166 45 86.499s19.167 40.5 27.5 60.5s15.833 40.833 22.5 62.5s12 40.5 16 56.5h80
c40.667 -0.666992 63.167 -4.83398 67.5 -12.501s4.66602 -17.667 0.999023 -30s-8 -26 -13 -41s-8.66699 -25.167 -11 -30.5s-6.66602 -12.166 -12.999 -20.499s-20.166 -17.166 -41.499 -26.499c5.33301 -29.333 6.66602 -64.333 3.99902 -105h-62
c1.33301 20.667 1 36 -1 46s-7.33301 22.333 -16 37l-12.5 -26l-29.5 -57h-62h-2zM1181 678.002c16.667 0 28 0.666992 34 2s10.667 4.33301 14 9s6 9 8 13s5.33301 12.167 10 24.5s4.66699 19.5 0 21.5s-17.667 2.66699 -39 2c-4.66699 -17.333 -10.167 -33 -16.5 -47
s-9.83301 -22.333 -10.5 -25zM1539 800.002c-6.66699 -24.667 -11.001 -40.332 -13.001 -46.999l-3 -10h-59c-6.66699 -27.333 -13 -49.5 -19 -66.5l-18.5 -50.5c-6.33301 -16.667 -13.666 -34 -21.999 -52s-14.833 -30.667 -19.5 -38h-58l34 74
c24 59.333 38.333 103.666 43 132.999h-59l11 39l3 18h8h172zM1492 536.004l20.002 34c12.667 29.333 21.834 51.5 27.501 66.5l17.5 48.5c6 17.333 11.167 33.833 15.5 49.5s8.16602 29 11.499 40s5.66602 21.833 6.99902 32.5l63 -1l-19 -75.5
c-4.66699 -18.333 -11.334 -39 -20.001 -62s-17.667 -44.333 -27 -64s-21 -42.5 -35 -68.5h-61zM1629 540.004l36.501 73.998c9.66699 20 17.667 39 24 57l18.5 55c6 18.667 14 45.334 24 80.001h61h105c-4 -23.333 -8.66699 -42 -14 -56l-107 1
c-4.66699 -18 -9.33398 -32.667 -14.001 -44l108 -2c-5.33301 -15.333 -12.666 -33.333 -21.999 -54h-107c-12.667 -29.333 -21.334 -47.666 -26.001 -54.999l110 -1l-30 -56h-168zM707.002 977.002l27 0.00195312c-1.33301 -10.667 -7.83301 -20.334 -19.5 -29.001
s-27.167 -13 -46.5 -13c-23.333 0 -42 6.66699 -56 20s-21 32 -21 56c0 26 7 46 21 60s32.333 21 55 21c21.333 0 38.833 -7 52.5 -21s20.5 -33 20.5 -57v-8h-121c1.33301 -16.667 6.33301 -29.334 15 -38.001s20 -13 34 -13c9.33301 0 17.833 2.5 25.5 7.5
s12.167 9.83301 13.5 14.5zM621.002 1028h89.999c-2 12 -5.33301 21.667 -10 29c-8.66699 9.33301 -20 14 -34 14c-13.333 0 -24.166 -3.83301 -32.499 -11.5s-12.833 -18.167 -13.5 -31.5z" />
    <glyph glyph-name="underscore" unicode="_" horiz-adv-x="1634" 
d="M370 -293c0 91.333 -3.66699 162 -11 212s-11 77 -11 81v6h1460c10 -40 17.333 -79 22 -117s9.66699 -98.667 15 -182h-1475v0z" />
    <glyph glyph-name="grave" unicode="`" horiz-adv-x="3221" 
 />
    <glyph glyph-name="a" unicode="a" horiz-adv-x="1748" 
d="M1698 1802c14.667 -75.333 24.999 -153.504 30.999 -234.504s4.16699 -182.167 -5.5 -303.5s-28.5 -250.333 -56.5 -387s-59.667 -267 -95 -391s-91.666 -287 -168.999 -489h-453l115 334l39 160l-451 7l-77 -243l-113 -258h-466c68 166.667 119.667 307 155 421
s67.5 226.5 96.5 337.5s52 224.667 69 341s35.5 232.833 55.5 349.5s69.5 207.834 148.5 273.501s145.333 99.834 199 102.501s158 3.83398 313 3.50098s376.5 -8.16602 664.5 -23.499zM703.999 875.996l476.997 -7.00195c38.667 152 60.334 256.833 65.001 314.5
s14.334 157.5 29.001 299.5c-231.333 15.333 -361.666 7.83301 -390.999 -22.5s-52.833 -75.666 -70.5 -135.999s-52.5 -207.166 -104.5 -440.499z" />
    <glyph glyph-name="b" unicode="b" horiz-adv-x="1517" 
d="M2 16c102 262.667 169.501 442.163 202.501 538.496s62 200.333 87 312s48.333 224.334 70 338.001s38.334 222.334 50.001 326.001s23.167 196.167 34.5 277.5l360 9c425.333 -1.33301 662.333 -15.666 711 -42.999s79.667 -62.666 93 -105.999
s19.333 -92.833 18 -148.5s-14.833 -121.334 -40.5 -197.001s-51.834 -121.167 -78.501 -136.5s-53.334 -35.666 -80.001 -60.999c46.667 -30.667 78.667 -63.667 96 -99s26.5 -79.666 27.5 -132.999s-5 -118 -18 -194s-33.5 -162.167 -61.5 -258.5s-58 -168.333 -90 -216
s-78 -94.334 -138 -140.001s-115 -71 -165 -76s-185 -7.5 -405 -7.5h-519h-142zM798.001 1249c129.333 -4 209.331 0.5 239.998 13.5s60.5 31.833 89.5 56.5s47.833 52 56.5 82s7.83398 54.333 -2.49902 73s-32.166 31 -65.499 37s-86.833 9.83301 -160.5 11.5
s-111.5 -1.33301 -113.5 -9s-7.33301 -37.667 -16 -90zM568.999 342.996c129.333 0 230.172 2.33301 302.505 7s123.166 33.167 152.499 85.5s49.833 108.5 61.5 168.5s12.5 105.833 2.5 137.5s-43.333 51 -100 58s-117.834 9.33301 -183.501 7s-98.334 -7 -98.001 -14
s-10.834 -50.667 -33.501 -131s-57.334 -186.5 -104.001 -318.5z" />
    <glyph glyph-name="c" unicode="c" horiz-adv-x="1567" 
d="M326 -6c-76.667 0 -137.499 20.5049 -182.499 61.5049s-66.667 84.167 -65 129.5s16.667 120.166 45 224.499s57.166 228.833 86.499 373.5s51.333 266.667 66 366s26 180.666 34 243.999s20.5 124.166 37.5 182.499s52.833 111.666 107.5 159.999s121 73.833 199 76.5
s203 2.66699 375 0s376 -6.66699 612 -12l-7 -274l-9 -63l-9 -46l-334 8c-256 0 -393.5 -5.16699 -412.5 -15.5s-35.5 -28 -49.5 -53s-27.5 -69 -40.5 -132s-28.167 -144 -45.5 -243s-33.333 -182.167 -48 -249.5s-23.834 -116.833 -27.501 -148.5
s-4.66699 -54.334 -3 -68.001s13.334 -34.667 35.001 -63s95.167 -42.5 220.5 -42.5h521l-34 -138l-94 -278h-958h-20z" />
    <glyph glyph-name="d" unicode="d" horiz-adv-x="1764" 
d="M403 1788l-3.00098 21.9961h562c401.333 -14.667 619.333 -27.167 654 -37.5s62.334 -26.666 83.001 -48.999s36.834 -57.5 48.501 -105.5s19.5 -107.167 23.5 -177.5s-1.83301 -165.666 -17.5 -285.999s-43.5 -262.166 -83.5 -425.499s-66.167 -267.666 -78.5 -312.999
s-28.833 -86.833 -49.5 -124.5s-46 -76.667 -76 -117s-64.333 -73 -103 -98s-86.334 -45 -143.001 -60s-466 -24.833 -1228 -29.5c96 210.667 155.333 372.667 178 486s48.667 228.833 78 346.5s54.833 253.167 76.5 406.5zM645.999 398.996
c230.667 0 362.167 4.66797 394.5 14.001s59.333 26.833 81 52.5s42.667 81.167 63 166.5l58 251.5c18.333 82.333 28.5 163.166 30.5 242.499s0.333008 141 -5 185s-16.833 79 -34.5 105s-55.834 41.333 -114.501 46s-149.667 7 -273 7l-25 -245l-20 -178
c-7.33301 -62.667 -20.5 -133.667 -39.5 -213s-35.667 -154 -50 -224s-36.166 -140 -65.499 -210z" />
    <glyph glyph-name="e" unicode="e" horiz-adv-x="1783" 
d="M-10 4c84 199.333 149.834 366.499 197.501 501.499s86.5 262.5 116.5 382.5s56.833 242.333 80.5 367s54.167 304.667 91.5 540h481l825 -1c-8 -160.667 -23 -285.667 -45 -375l-841 7c-16.667 -119.333 -33.334 -219.333 -50.001 -300l841 -7
c-22 -105.333 -56 -227.666 -102 -366.999h-845c-64.667 -199.333 -109 -324 -133 -374l862 -7c-51.333 -124.667 -107.333 -249.667 -168 -375h-1316z" />
    <glyph glyph-name="f" unicode="f" horiz-adv-x="1660" 
d="M-14 -11c47.333 110 79.832 189.831 97.499 239.498s46.334 142 86.001 277s71 262.5 94 382.5s42 242.333 57 367s33.833 302.334 56.5 533.001h476l852 -1c6 -156 0.666992 -278.667 -16 -368l-858 7c-8.66699 -119.333 -19 -219.333 -31 -300l859 -7
c-15.333 -105.333 -42 -227.666 -80 -366.999h-862c-60 -204 -96.667 -325.833 -110 -365.5s-62.333 -172.167 -147 -397.5h-474z" />
    <glyph glyph-name="g" unicode="g" horiz-adv-x="1646" 
d="M1661 1792l-20.9941 -265.996l-11 -62l-10 -46l-387 8c-290.667 9.33301 -446.334 -6 -467.001 -46s-34.5 -91.333 -41.5 -154s-20.333 -143.334 -40 -242.001s-37.834 -181.5 -54.501 -248.5s-27.667 -116.167 -33 -147.5s-7 -53.833 -5 -67.5
s5.16699 -27.334 9.5 -41.001s15.333 -27.834 33 -42.501s46.167 -23.167 85.5 -25.5s88 -4.5 146 -6.5s94 22.333 108 73s24 87.667 30 111s2.66699 39.833 -10 49.5s-62 14.834 -148 15.501l83 343l131 3h178l190 -4l135 -4
c-40.667 -249.333 -74.334 -410.5 -101.001 -483.5s-55.334 -165 -86.001 -276s-89.667 -177.333 -177 -199s-265.833 -32.5 -535.5 -32.5h-415h-70c-39.667 0 -76.667 5.16699 -111 15.5s-57.333 30.666 -69 60.999s-16.167 68.166 -13.5 113.499s19.667 119.833 51 223.5
s64 227.667 98 372s59.5 265.833 76.5 364.5s30.5 179.5 40.5 242.5s15.667 107.167 17 132.5s7.16602 54.5 17.499 87.5s48.166 73.5 113.499 121.5s138.333 73.333 219 76s205.667 2.66699 375 0s392.333 -9 669 -19z" />
    <glyph glyph-name="h" unicode="h" horiz-adv-x="1834" 
d="M1115 423c-31.333 -93.333 -31.333 -93.167 0 0.5s31.333 93.5 0 -0.5zM-8 -5.00098c89.333 217.333 151.667 379.17 187 485.503s67.5 216.333 96.5 330s51.667 228.667 68 345s29.333 220 39 311s22.5 204.833 38.5 341.5h335l187 -1l-38 -370.5
c-8.66699 -81 -24 -187.167 -46 -318.5l420 -8c26.667 167.333 46.167 306.5 58.5 417.5s17.5 202.167 15.5 273.5l506 -1l-20 -265c-20 -202 -41.167 -367.333 -63.5 -496s-47.666 -248.834 -75.999 -360.501s-60.833 -219.334 -97.5 -323.001s-89 -226.5 -157 -368.5h-486
c72.667 197.333 124.667 342.833 156 436.5s59.666 196.167 84.999 307.5l-421 7c-30 -100.667 -61.667 -195.334 -95 -284.001s-97 -241.667 -191 -459h-493h-8zM1699 685.003c28.667 116.667 28.833 116.833 0.5 0.5s-28.5 -116.5 -0.5 -0.5z" />
    <glyph glyph-name="i" unicode="i" horiz-adv-x="853" 
d="M-3 -6l100 220c58.667 197.333 99.5 346.5 122.5 447.5s45.333 209.667 67 326s38 227.666 49 333.999s18.5 197.5 22.5 273.5s5.33301 149.333 4 220l501 -15c-12 -212.667 -23.333 -381 -34 -505s-32.167 -263.167 -64.5 -417.5s-69.833 -297.166 -112.5 -428.499
s-99 -283 -169 -455h-486z" />
    <glyph glyph-name="j" unicode="j" horiz-adv-x="1619" 
d="M1136 1803l493.004 0.00195312c0 -146.667 -10.833 -299.667 -32.5 -459s-47.834 -312.333 -78.501 -459s-69.834 -290.834 -117.501 -432.501s-82.334 -230.167 -104.001 -265.5s-51.667 -67 -90 -95s-81.833 -49.5 -130.5 -64.5s-99.834 -25.167 -153.501 -30.5
s-227.167 -8 -520.5 -8c-212.667 0 -327.167 10.833 -343.5 32.5s-28.5 39.834 -36.5 54.501s-10.333 33 -7 55s18.333 78 45 168s60 223 100 399l206 -3l224 3c-24 -109.333 -44.167 -191.5 -60.5 -246.5s-2.5 -81.333 41.5 -79s91.667 3.66602 143 3.99902
s89.833 5.66602 115.5 15.999s52 40.5 79 90.5s50.667 119.167 71 207.5s40.5 192 60.5 311s35.333 229.167 46 330.5s19.167 190 25.5 266s14.5 144.333 24.5 205z" />
    <glyph glyph-name="k" unicode="k" horiz-adv-x="1940" 
d="M-11 2c88 222.667 155.501 403.67 202.501 543.003s82.5 279.833 106.5 421.5s47 288.5 69 440.5s35 288.667 39 410l474 -15c-4.66699 -187.333 -11.5 -329 -20.5 -425s-17.167 -169.333 -24.5 -220l-11 -76l635 728h533l-822 -1006
c128 -176.667 205.167 -301.834 231.5 -375.501s46.666 -142.5 60.999 -206.5s30.166 -139.667 47.499 -227h-494c-8 136.667 -30.5 245.5 -67.5 326.5s-68.667 143 -95 186s-38.166 62.167 -35.499 57.5l-76 91c-40.667 -146.667 -75.167 -259.334 -103.5 -338.001
s-70.5 -186.334 -126.5 -323.001h-520z" />
    <glyph glyph-name="l" unicode="l" horiz-adv-x="1692" 
d="M-19 -12c106 268.667 176.168 460 210.501 574s66.833 243 97.5 387s52.167 280.667 64.5 410s21.166 235.666 26.499 318.999s8 130.333 8 141l497 -8c6 -136.667 4.5 -264.5 -4.5 -383.5s-23.833 -236.667 -44.5 -353s-45.167 -235.333 -73.5 -357
s-59.833 -228.167 -94.5 -319.5l922 -7c-41.333 -121.333 -94.333 -250.666 -159 -387.999l-12 -7h-1419z" />
    <glyph glyph-name="m" unicode="m" horiz-adv-x="2123" 
d="M-13 3c102.667 222.667 174.331 395.998 214.998 519.998s77.5 251.833 110.5 383.5s61 268.334 84 410.001s37.5 259.334 43.5 353.001s10 138.167 12 133.5h547l240 -440l379 439l505 1c0 -167.333 -14.5 -324.333 -43.5 -471l-64.5 -322.5
c-14 -68.333 -40.167 -164.5 -78.5 -288.5s-77 -235.5 -116 -334.5s-97.5 -229.5 -175.5 -391.5h-456c120.667 288.667 196.5 495 227.5 619s62.833 296.667 95.5 518l-443 -407l-232 374c-50 -229.333 -96.667 -403.5 -140 -522.5s-94.166 -244.333 -152.499 -376
s-92.166 -200.167 -101.499 -205.5h-453l3 -7v0z" />
    <glyph glyph-name="n" unicode="n" horiz-adv-x="1906" 
d="M1 3l75.499 171.001c50.333 114 100.333 243.167 150 387.5s90 289.833 121 436.5s57.333 280.667 79 402s33.834 220 36.501 296s6.66699 114 12 114h399l381 -991c64 286 104.333 494.833 121 626.5s27.334 253.167 32.001 364.5h502
c-42 -410 -98.5 -742.833 -169.5 -998.5s-117.333 -413.834 -139 -474.501s-70.5 -174.667 -146.5 -342l-381 1l-316 729c-82.667 -259.333 -134.834 -419.333 -156.501 -480s-58.167 -144 -109.5 -250h-487z" />
    <glyph glyph-name="o" unicode="o" horiz-adv-x="1769" 
d="M598 503c-2 -6 -4.33594 -19.668 -7.00293 -41.001s-0.5 -41.166 6.5 -59.499s24.833 -29.833 53.5 -34.5s88.334 -5.5 179.001 -2.5s146.167 5.33301 166.5 7s40.333 11.167 60 28.5s36.167 37.166 49.5 59.499s27 58.833 41 109.5s29.333 109.834 46 177.501
s34.334 149.167 53.001 244.5s34.334 186.833 47.001 274.5s12.5 144.5 -0.5 170.5s-37.833 39.833 -74.5 41.5s-92.667 2.5 -168 2.5s-126.5 -0.833008 -153.5 -2.5s-48.667 -10.5 -65 -26.5s-27.333 -36.667 -33 -62s-16.5 -87.333 -32.5 -186s-30.5 -178.667 -43.5 -240
s-26 -116.5 -39 -165.5s-41.5 -147.5 -85.5 -295.5zM18.9971 208.999c86.667 242.667 141.833 404.501 165.5 485.501s46 172.167 67 273.5s40.833 233 59.5 395s33 264.167 43 306.5s36.5 76.5 79.5 102.5s103 40.333 180 43s223.667 4 440 4s377.166 -1.33301 482.499 -4
s180 -25.5 224 -68.5s60.5 -136.667 49.5 -281s-30.833 -294.833 -59.5 -451.5s-58 -290.834 -88 -402.501s-58.667 -209.167 -86 -292.5s-57.166 -143.5 -89.499 -180.5s-74 -70 -125 -99s-104.5 -43.5 -160.5 -43.5h-469h-517.5c-88.333 0 -145.333 15.167 -171 45.5
s-37.5 63.333 -35.5 99s5.66699 58.5 11 68.5z" />
    <glyph glyph-name="p" unicode="p" horiz-adv-x="1720" 
d="M5 -7c71.333 187.333 128.501 345.5 171.501 474.5s82.667 272 119 429s62.166 301.333 77.499 433l38 334c10 91 13.667 134.167 11 129.5h901c228 0 362.833 -26.667 404.5 -80s60.834 -125.5 57.501 -216.5s-8.5 -170.667 -15.5 -239s-26.333 -151 -58 -248
s-56.334 -166.5 -74.001 -208.5s-49.5 -82.5 -95.5 -121.5s-92.5 -65.833 -139.5 -80.5s-276.5 -20 -688.5 -16l-21 -58l-115 -335l-84 -197h-475h-14zM882.001 1459c-10 -127.333 -25 -242.831 -45 -346.498s-29 -162.834 -27 -177.501c200 0 320 4.66699 360 14
s70.333 30.666 91 63.999s35.167 91.333 43.5 174s12.833 144 13.5 184s-13.5 68.333 -42.5 85s-158.833 20 -389.5 10z" />
    <glyph glyph-name="q" unicode="q" horiz-adv-x="1755" 
d="M1341 272l27.998 -119.998l-4 -164h-338l7 66c-204 -44 -372.5 -67 -505.5 -69s-234.333 -2 -304 0s-122.334 27.167 -158.001 75.5s-33.5 130.666 6.5 246.999s75 222.666 105 318.999s56.333 207.666 79 333.999s38.834 242.666 48.501 348.999
s17.334 198.833 23.001 277.5s38.334 134.334 98.001 167.001s142.667 49 249 49h482c215 0 351 -1.16699 408 -3.5s106.667 -28.833 149 -79.5s60 -124.167 53 -220.5s-21.667 -224.166 -44 -383.499s-69 -324.333 -140 -495s-151.833 -287 -242.5 -349zM1035 412.002
l18 251.001l151 48c6.66699 88 18.667 183.167 36 285.5s31.5 200.5 42.5 294.5s9.83301 155 -3.5 183s-38.333 42.833 -75 44.5s-92.667 2.5 -168 2.5s-126.5 -0.833008 -153.5 -2.5s-48.5 -11 -64.5 -28s-27 -39.333 -33 -67s-16 -94.334 -30 -200.001
s-27 -191.5 -39 -257.5s-24.167 -125.333 -36.5 -178s-38.833 -158 -79.5 -316c-2.66699 -6.66699 -5 -21.5 -7 -44.5s0.5 -44.5 7.5 -64.5s26 -30 57 -30s86.667 10 167 30s150.5 36.333 210.5 49z" />
    <glyph glyph-name="r" unicode="r" horiz-adv-x="1785" 
d="M-31 -14c112 251.333 194 447.672 246 589.005s96.833 281.166 134.5 419.499s69 280.666 94 426.999s41.167 278.5 48.5 396.5h680c352 -9.33301 552 -39.833 600 -91.5s67 -119.834 57 -204.501s-25.5 -178.334 -46.5 -281.001s-38.167 -172.5 -51.5 -209.5
s-39.833 -84.167 -79.5 -141.5s-142.167 -119.333 -307.5 -186c96.667 -200.667 163 -442.334 199 -725.001h-530c-20.667 143.333 -48.5 249.5 -83.5 318.5s-100.5 154.167 -196.5 255.5c-24 -78 -44.333 -136.833 -61 -176.5l-165 -390.5h-530h-8zM825 973.006
c145.333 0 241.667 5.66699 289 17s82.833 33 106.5 65s39.667 60.833 48 86.5s23.333 79.667 45 162s10.167 131.5 -34.5 147.5s-155 21.667 -331 17c-18.667 -119.333 -41.5 -226 -68.5 -320s-45.167 -152.333 -54.5 -175z" />
    <glyph glyph-name="s" unicode="s" horiz-adv-x="1783" 
d="M1360 1803c167.333 0 279.333 -21.3311 336 -63.998s82.5 -101.834 77.5 -177.501s-15.5 -158.5 -31.5 -248.5h-461c35.333 119.333 4 179 -94 179h-259.5c-75 0 -117.167 -19 -126.5 -57l-35 -148c-14 -60.667 -15.667 -103.5 -5 -128.5s33 -45.167 67 -60.5
s110.667 -19.5 230 -12.5s222.166 -3.66699 308.499 -32s149 -88.166 188 -179.499s34.5 -218.333 -13.5 -381s-98 -275.834 -150 -339.501s-167.667 -116.834 -347 -159.501h-578c-378.667 -14 -517 120.667 -415 404l74 169h455l-43 -128
c2.66699 -46.667 9.66699 -76.167 21 -88.5s121 -16.166 329 -11.499c112.667 13.333 182.667 74.5 210 183.5s14.833 178 -37.5 207s-139.166 40.167 -260.499 33.5s-233.833 -4 -337.5 8s-174 40.833 -211 86.5s-40.667 130.167 -11 253.5s53.167 225.5 70.5 306.5
s32.5 144.167 45.5 189.5s41.333 85.666 85 120.999s101 57.833 172 67.5s200.167 14.5 387.5 14.5s307.333 -2.33301 360 -7z" />
    <glyph glyph-name="t" unicode="t" horiz-adv-x="1697" 
d="M1772 1794c-12.667 -169.333 -22.001 -277.667 -28.001 -325l-9 -71h-497c-14.667 -184 -33.167 -334.5 -55.5 -451.5s-48.166 -231.5 -77.499 -343.5s-65.833 -230.167 -109.5 -354.5s-75.5 -208.5 -95.5 -252.5h-499l167 506c117.333 397.333 172.333 696.333 165 897
h-497l24 268l1 127h76h1435z" />
    <glyph glyph-name="u" unicode="u" horiz-adv-x="1742" 
d="M397 1797l507.002 0.000976562c-8 -148 -23.667 -282.667 -47 -404s-48.333 -242.833 -75 -364.5s-63.334 -249.5 -110.001 -383.5s-62.334 -216 -47.001 -246s45.166 -43.833 89.499 -41.5s91.833 3.5 142.5 3.5s93 5 127 15s60.667 32.667 80 68
s45.166 103.5 77.499 204.5s63.833 218.667 94.5 353s55.834 263.666 75.501 387.999s30.167 259.833 31.5 406.5h466c8 -116.667 6.5 -226.834 -4.5 -330.501s-27.833 -215 -50.5 -334s-55.834 -254.5 -99.501 -406.5s-94.334 -289.833 -152.001 -413.5
s-128.167 -207.167 -211.5 -250.5s-213.666 -65 -390.999 -65s-350.166 -1.33301 -518.499 -4s-277.666 16.333 -327.999 57s-51.666 118 -3.99902 232s95.667 247.833 144 401.5s87.166 311.834 116.499 474.501s58.333 376 87 640z" />
    <glyph glyph-name="v" unicode="v" horiz-adv-x="1607" 
d="M300 1804l478.001 -0.998047c8 -151.333 7.66699 -327 -1 -527s-49.667 -479.667 -123 -839c170 252 280.833 439 332.5 561s97.167 243.833 136.5 365.5s82 268.5 128 440.5h492c-36 -136.667 -75.333 -269.667 -118 -399s-103.167 -281.333 -181.5 -456
s-184.833 -353 -319.5 -535s-256.334 -321.333 -365.001 -418h-628c49.333 253.333 80.333 438.166 93 554.499s28.167 240.333 46.5 372s28.5 273.5 30.5 425.5s3 264.667 3 338s-1 107.666 -3 102.999z" />
    <glyph glyph-name="w" unicode="w" horiz-adv-x="2104" 
d="M2115 1794c-20 -217.333 -48.501 -407.829 -85.501 -571.496s-70.667 -294.334 -101 -392.001s-73.5 -217.334 -129.5 -359.001s-126.667 -300.5 -212 -476.5l-484 -1l-247 316l-418 -317l-455 7c81.333 163.333 143.833 299.833 187.5 409.5
s82.334 217.167 116.001 322.5s67.167 221.166 100.5 347.499s61.333 239.166 84 338.499s47 230 73 392h488l-105.5 -485c-24.333 -117.333 -90.833 -346.333 -199.5 -687l404 368l228 -390c84.667 289.333 139.667 494.833 165 616.5s56 311.5 92 569.5h496l-4 7v0z" />
    <glyph glyph-name="x" unicode="x" horiz-adv-x="1846" 
d="M426 1791h438l139 -503l370 511h494l-672 -914l245 -894h-467l-123 453l-367 -453h-488l430 614l199 247l-119 499c-56.667 242.667 -86.667 381.667 -90 417z" />
    <glyph glyph-name="y" unicode="y" horiz-adv-x="1540" 
d="M658 -4l213.002 594.002c-73.333 127.333 -133.833 222.833 -181.5 286.5s-125.834 189.167 -234.501 376.5s-207 371 -295 551h449c57.333 -102 100.333 -174.167 129 -216.5s68.167 -108.333 118.5 -198l160.5 -287.5l155 695h457
c-50 -288.667 -93 -512.834 -129 -672.501s-84.333 -336.834 -145 -531.501s-134.334 -396 -221.001 -604h-486z" />
    <glyph glyph-name="z" unicode="z" horiz-adv-x="1770" 
d="M1774 1799c0 -81.333 1.33301 -210.333 4 -387l-1065 -1025l872 -1l-17.5 -57c-11.667 -38 -53.834 -150.667 -126.501 -338h-1443l121 365l1090 1041h-896c-5.33301 90.667 -1.66602 224.667 11.001 402h1450z" />
    <glyph glyph-name="braceleft" unicode="{" horiz-adv-x="1228" 
d="M363 1786h1040c-6 -114.667 -10.167 -178 -12.5 -190s-4.83301 -20.667 -7.5 -26h-364c-18.667 -193.333 -37.167 -341.5 -55.5 -444.5s-39.833 -210.333 -64.5 -322s-77.667 -306.167 -159 -583.5h368l-73 -228h-1036c37.333 92.667 71 169 101 229h303
c85.333 314.667 143.5 540 174.5 676s55.5 270.833 73.5 404.5s30.667 223.5 38 269.5h-352c14 83.333 22.667 155 26 215z" />
    <glyph glyph-name="bar" unicode="|" horiz-adv-x="2648" 
d="M503 1786l1040 0.000976562c3.33301 -126.667 3.83301 -196 1.5 -208s-4.83301 -20.667 -7.5 -26h-364c-28 -181.333 -51.167 -323.5 -69.5 -426.5s-39.833 -210.333 -64.5 -322s-87 -304.834 -187 -579.501h368l-45 -232h-1036c18.667 95.333 43 173 73 233h303
c104 312 171.5 536 202.5 672s57.833 272.5 80.5 409.5s37.667 219.167 45 246.5h-352c12.667 95.333 16.667 173 12 233zM1113 1786l1040 0.000976562c3.33301 -126.667 3.83301 -196 1.5 -208s-4.83301 -20.667 -7.5 -26h-364c-28 -181.333 -51.167 -323.5 -69.5 -426.5
s-39.833 -210.333 -64.5 -322s-87 -304.834 -187 -579.501h368l-45 -232h-1036c18.667 95.333 43 173 73 233h303c104 312 171.5 536 202.5 672s57.833 272.5 80.5 409.5s37.667 219.167 45 246.5h-352c12.667 95.333 16.667 173 12 233zM1713 1786l1040 0.000976562
c3.33301 -126.667 3.83301 -196 1.5 -208s-4.83301 -20.667 -7.5 -26h-364c-28 -181.333 -51.167 -323.5 -69.5 -426.5s-39.833 -210.333 -64.5 -322s-87 -304.834 -187 -579.501h368l-45 -232h-1036c18.667 95.333 43 173 73 233h303c104 312 171.5 536 202.5 672
s57.833 272.5 80.5 409.5s37.667 219.167 45 246.5h-352c12.667 95.333 16.667 173 12 233z" />
    <glyph glyph-name="braceright" unicode="}" horiz-adv-x="1896" 
d="M1005 1786h1040c-3.33301 -123.333 -6.16602 -191 -8.49902 -203s-4.83301 -20.667 -7.5 -26h-364c-21.333 -184.667 -41.166 -328.5 -59.499 -431.5s-39.833 -210.333 -64.5 -322s-85.334 -306.5 -182.001 -584.5h368l-50 -227h-1036c22 92 48 168 78 228h303
c100.667 315.333 166.5 541 197.5 677s56.167 273.333 75.5 412s32.666 221.667 39.999 249h-352c19.333 92 26.666 168 21.999 228zM355.001 1786h1040c-3.33301 -123.333 -6.16602 -191 -8.49902 -203s-4.83301 -20.667 -7.5 -26h-364
c-21.333 -184.667 -41.166 -328.5 -59.499 -431.5s-39.833 -210.333 -64.5 -322s-85.334 -306.5 -182.001 -584.5h368l-50 -227h-1036c22 92 48 168 78 228h303c100.667 315.333 166.5 541 197.5 677s56.167 273.333 75.5 412s32.666 221.667 39.999 249h-352
c19.333 92 26.666 168 21.999 228z" />
    <glyph glyph-name="asciitilde" unicode="~" horiz-adv-x="1037" 
 />
    <glyph glyph-name="nonbreakingspace" unicode="&#xa0;" horiz-adv-x="1573" 
 />
    <glyph glyph-name="exclamdown" unicode="&#xa1;" horiz-adv-x="892" 
d="M606 1308c64 -141.333 111.667 -256.332 143 -344.999s64.833 -191.167 100.5 -307.5s63.5 -235.333 83.5 -357s35 -222.834 45 -303.501l-449 -1l-73 369c-20.667 108.667 -48.667 216.167 -84 322.5l-96.5 287l-113.5 335.5h444zM556 1465l-462 2l-98 336l443 1z" />
    <glyph glyph-name="cent" unicode="&#xa2;" 
 />
    <glyph glyph-name="sterling" unicode="&#xa3;" horiz-adv-x="1589" 
d="M916 1794c352.667 4.66699 554.667 -0.168945 606 -14.502s93.5 -39.666 126.5 -75.999s40.667 -153.166 23 -350.499s-75 -321.333 -172 -372s-269.333 -127.834 -517 -231.501s-385.334 -176 -413.001 -217s-54.5 -117.167 -80.5 -228.5l935 -2l-73 -308h-1364l129 438
c32 104.667 59.667 179.834 83 225.501s181.166 135.5 473.499 269.5l521 239c55 25.333 94.833 92.5 119.5 201.5s-10.666 164.5 -105.999 166.5s-182.666 1.83301 -261.999 -0.5s-144.5 -19.5 -195.5 -51.5s-84.5 -120.333 -100.5 -265h-363
c36.667 253.333 103.5 411.833 200.5 475.5s205.5 96.5 325.5 98.5s154.667 3 104 3z" />
    <glyph glyph-name="currency" unicode="&#xa4;" horiz-adv-x="1408" 
d="M1186 977c123.333 -118.667 173.499 -244.167 150.499 -376.5s-51.5 -234.166 -85.5 -305.499s-87.833 -136.666 -161.5 -195.999s-157.5 -93.833 -251.5 -103.5s-231.333 -12.167 -412 -7.5s-294.5 71.167 -341.5 199.5s-63.5 218.833 -49.5 271.5l302 -1
c9.33301 -120.667 99.833 -183.334 271.5 -188.001s278.667 35.5 321 120.5s64.166 153.5 65.499 205.5s-4.16699 96.167 -16.5 132.5s-46.166 65.166 -101.499 86.499s-160 37 -314 47l22 202c246.667 30.667 403.834 101.834 471.501 213.501s82.834 187.5 45.501 227.5
s-128.166 57.667 -272.499 53s-220.166 -66 -227.499 -184l-337 -2l30 142c25.333 210 198.666 308 519.999 294c320.667 -4.66699 509.167 -32.5 565.5 -83.5s87.666 -127.833 93.999 -230.5s-7.66699 -190.334 -42 -263.001s-82.833 -133.167 -145.5 -181.5
s-96.334 -72.5 -101.001 -72.5z" />
    <glyph glyph-name="yen" unicode="&#xa5;" horiz-adv-x="1460" 
 />
    <glyph glyph-name="brokenbar" unicode="&#xa6;" horiz-adv-x="569" 
 />
    <glyph glyph-name="section" unicode="&#xa7;" 
 />
    <glyph glyph-name="dieresis" unicode="&#xa8;" horiz-adv-x="682" 
 />
    <glyph glyph-name="copyright" unicode="&#xa9;" horiz-adv-x="1509" 
 />
    <glyph glyph-name="ordfeminine" unicode="&#xaa;" horiz-adv-x="1124" 
 />
    <glyph glyph-name="guillemotleft" unicode="&#xab;" horiz-adv-x="561" 
 />
    <glyph glyph-name="logicalnot" unicode="&#xac;" horiz-adv-x="1686" 
 />
    <glyph glyph-name="registered" unicode="&#xae;" horiz-adv-x="1509" 
 />
    <glyph glyph-name="macron" unicode="&#xaf;" horiz-adv-x="1366" 
 />
    <glyph glyph-name="degree" unicode="&#xb0;" horiz-adv-x="762" 
d="M585 1530c12.667 -73.333 -2.66699 -135.5 -46 -186.5s-103 -76.5 -179 -76.5s-144.5 25.333 -205.5 76s-97.833 113 -110.5 187c-12.667 73.333 2.66602 135.5 45.999 186.5s103.333 76.5 180 76.5c76 0 144.333 -25.5 205 -76.5s97.334 -113.167 110.001 -186.5z
M473.999 1530c-8 44.667 -29.668 82.167 -65.001 112.5s-76 45.5 -122 45.5c-45.333 0 -80.5 -15.167 -105.5 -45.5s-33.833 -67.833 -26.5 -112.5c8 -45.333 30 -83 66 -113s76.333 -45 121 -45c46 0 81.333 15.333 106 46s33.334 68 26.001 112zM584.998 1530
c12.667 -73.333 -2.66699 -135.5 -46 -186.5s-103 -76.5 -179 -76.5s-144.5 25.333 -205.5 76s-97.833 113 -110.5 187c-12.667 73.333 2.66602 135.5 45.999 186.5s103.333 76.5 180 76.5c76 0 144.333 -25.5 205 -76.5s97.334 -113.167 110.001 -186.5zM473.997 1530
c-8 44.667 -29.668 82.167 -65.001 112.5s-76 45.5 -122 45.5c-45.333 0 -80.5 -15.167 -105.5 -45.5s-33.833 -67.833 -26.5 -112.5c8 -45.333 30 -83 66 -113s76.333 -45 121 -45c46 0 81.333 15.333 106 46s33.334 68 26.001 112zM584.996 1530
c12.667 -73.333 -2.66699 -135.5 -46 -186.5s-103 -76.5 -179 -76.5s-144.5 25.333 -205.5 76s-97.833 113 -110.5 187c-12.667 73.333 2.66602 135.5 45.999 186.5s103.333 76.5 180 76.5c76 0 144.333 -25.5 205 -76.5s97.334 -113.167 110.001 -186.5zM473.995 1530
c-8 44.667 -29.668 82.167 -65.001 112.5s-76 45.5 -122 45.5c-45.333 0 -80.5 -15.167 -105.5 -45.5s-33.833 -67.833 -26.5 -112.5c8 -45.333 30 -83 66 -113s76.333 -45 121 -45c46 0 81.333 15.333 106 46s33.334 68 26.001 112zM584.994 1530
c12.667 -73.333 -2.66699 -135.5 -46 -186.5s-103 -76.5 -179 -76.5s-144.5 25.333 -205.5 76s-97.833 113 -110.5 187c-12.667 73.333 2.66602 135.5 45.999 186.5s103.333 76.5 180 76.5c76 0 144.333 -25.5 205 -76.5s97.334 -113.167 110.001 -186.5zM473.993 1530
c-8 44.667 -29.668 82.167 -65.001 112.5s-76 45.5 -122 45.5c-45.333 0 -80.5 -15.167 -105.5 -45.5s-33.833 -67.833 -26.5 -112.5c8 -45.333 30 -83 66 -113s76.333 -45 121 -45c46 0 81.333 15.333 106 46s33.334 68 26.001 112zM584.992 1530
c12.667 -73.333 -2.66699 -135.5 -46 -186.5s-103 -76.5 -179 -76.5s-144.5 25.333 -205.5 76s-97.833 113 -110.5 187c-12.667 73.333 2.66602 135.5 45.999 186.5s103.333 76.5 180 76.5c76 0 144.333 -25.5 205 -76.5s97.334 -113.167 110.001 -186.5zM473.991 1530
c-8 44.667 -29.668 82.167 -65.001 112.5s-76 45.5 -122 45.5c-45.333 0 -80.5 -15.167 -105.5 -45.5s-33.833 -67.833 -26.5 -112.5c8 -45.333 30 -83 66 -113s76.333 -45 121 -45c46 0 81.333 15.333 106 46s33.334 68 26.001 112zM584.99 1530
c12.667 -73.333 -2.66699 -135.5 -46 -186.5s-103 -76.5 -179 -76.5s-144.5 25.333 -205.5 76s-97.833 113 -110.5 187c-12.667 73.333 2.66602 135.5 45.999 186.5s103.333 76.5 180 76.5c76 0 144.333 -25.5 205 -76.5s97.334 -113.167 110.001 -186.5zM473.989 1530
c-8 44.667 -29.668 82.167 -65.001 112.5s-76 45.5 -122 45.5c-45.333 0 -80.5 -15.167 -105.5 -45.5s-33.833 -67.833 -26.5 -112.5c8 -45.333 30 -83 66 -113s76.333 -45 121 -45c46 0 81.333 15.333 106 46s33.334 68 26.001 112zM584.988 1530
c12.667 -73.333 -2.66699 -135.5 -46 -186.5s-103 -76.5 -179 -76.5s-144.5 25.333 -205.5 76s-97.833 113 -110.5 187c-12.667 73.333 2.66602 135.5 45.999 186.5s103.333 76.5 180 76.5c76 0 144.333 -25.5 205 -76.5s97.334 -113.167 110.001 -186.5zM473.987 1530
c-8 44.667 -29.668 82.167 -65.001 112.5s-76 45.5 -122 45.5c-45.333 0 -80.5 -15.167 -105.5 -45.5s-33.833 -67.833 -26.5 -112.5c8 -45.333 30 -83 66 -113s76.333 -45 121 -45c46 0 81.333 15.333 106 46s33.334 68 26.001 112zM584.986 1530
c12.667 -73.333 -2.66699 -135.5 -46 -186.5s-103 -76.5 -179 -76.5s-144.5 25.333 -205.5 76s-97.833 113 -110.5 187c-12.667 73.333 2.66602 135.5 45.999 186.5s103.333 76.5 180 76.5c76 0 144.333 -25.5 205 -76.5s97.334 -113.167 110.001 -186.5zM473.985 1530
c-8 44.667 -29.668 82.167 -65.001 112.5s-76 45.5 -122 45.5c-45.333 0 -80.5 -15.167 -105.5 -45.5s-33.833 -67.833 -26.5 -112.5c8 -45.333 30 -83 66 -113s76.333 -45 121 -45c46 0 81.333 15.333 106 46s33.334 68 26.001 112zM584.984 1530
c12.667 -73.333 -2.66699 -135.5 -46 -186.5s-103 -76.5 -179 -76.5s-144.5 25.333 -205.5 76s-97.833 113 -110.5 187c-12.667 73.333 2.66602 135.5 45.999 186.5s103.333 76.5 180 76.5c76 0 144.333 -25.5 205 -76.5s97.334 -113.167 110.001 -186.5zM473.983 1530
c-8 44.667 -29.668 82.167 -65.001 112.5s-76 45.5 -122 45.5c-45.333 0 -80.5 -15.167 -105.5 -45.5s-33.833 -67.833 -26.5 -112.5c8 -45.333 30 -83 66 -113s76.333 -45 121 -45c46 0 81.333 15.333 106 46s33.334 68 26.001 112zM584.982 1530
c12.667 -73.333 -2.66699 -135.5 -46 -186.5s-103 -76.5 -179 -76.5s-144.5 25.333 -205.5 76s-97.833 113 -110.5 187c-12.667 73.333 2.66602 135.5 45.999 186.5s103.333 76.5 180 76.5c76 0 144.333 -25.5 205 -76.5s97.334 -113.167 110.001 -186.5zM473.981 1530
c-8 44.667 -29.668 82.167 -65.001 112.5s-76 45.5 -122 45.5c-45.333 0 -80.5 -15.167 -105.5 -45.5s-33.833 -67.833 -26.5 -112.5c8 -45.333 30 -83 66 -113s76.333 -45 121 -45c46 0 81.333 15.333 106 46s33.334 68 26.001 112zM584.98 1530
c12.667 -73.333 -2.66699 -135.5 -46 -186.5s-103 -76.5 -179 -76.5s-144.5 25.333 -205.5 76s-97.833 113 -110.5 187c-12.667 73.333 2.66602 135.5 45.999 186.5s103.333 76.5 180 76.5c76 0 144.333 -25.5 205 -76.5s97.334 -113.167 110.001 -186.5zM473.979 1530
c-8 44.667 -29.668 82.167 -65.001 112.5s-76 45.5 -122 45.5c-45.333 0 -80.5 -15.167 -105.5 -45.5s-33.833 -67.833 -26.5 -112.5c8 -45.333 30 -83 66 -113s76.333 -45 121 -45c46 0 81.333 15.333 106 46s33.334 68 26.001 112zM584.979 1530
c12.667 -73.333 -2.66699 -135.5 -46 -186.5s-103 -76.5 -179 -76.5s-144.5 25.333 -205.5 76s-97.833 113 -110.5 187c-12.667 73.333 2.66602 135.5 45.999 186.5s103.333 76.5 180 76.5c76 0 144.333 -25.5 205 -76.5s97.334 -113.167 110.001 -186.5zM473.978 1530
c-8 44.667 -29.668 82.167 -65.001 112.5s-76 45.5 -122 45.5c-45.333 0 -80.5 -15.167 -105.5 -45.5s-33.833 -67.833 -26.5 -112.5c8 -45.333 30 -83 66 -113s76.333 -45 121 -45c46 0 81.333 15.333 106 46s33.334 68 26.001 112z" />
    <glyph glyph-name="plusminus" unicode="&#xb1;" horiz-adv-x="1593" 
 />
    <glyph glyph-name="twosuperior" unicode="&#xb2;" horiz-adv-x="569" 
 />
    <glyph glyph-name="threesuperior" unicode="&#xb3;" horiz-adv-x="682" 
 />
    <glyph glyph-name="acute" unicode="&#xb4;" horiz-adv-x="682" 
 />
    <glyph glyph-name="mu" unicode="&#xb5;" horiz-adv-x="1124" 
 />
    <glyph glyph-name="paragraph" unicode="&#xb6;" horiz-adv-x="1100" 
 />
    <glyph glyph-name="periodcentered" unicode="&#xb7;" horiz-adv-x="2048" 
 />
    <glyph glyph-name="cedilla" unicode="&#xb8;" horiz-adv-x="1366" 
 />
    <glyph glyph-name="onesuperior" unicode="&#xb9;" horiz-adv-x="1479" 
 />
    <glyph glyph-name="ordmasculine" unicode="&#xba;" horiz-adv-x="1124" 
 />
    <glyph glyph-name="guillemotright" unicode="&#xbb;" horiz-adv-x="758" 
 />
    <glyph glyph-name="onequarter" unicode="&#xbc;" horiz-adv-x="682" 
 />
    <glyph glyph-name="onehalf" unicode="&#xbd;" horiz-adv-x="682" 
 />
    <glyph glyph-name="threequarters" unicode="&#xbe;" horiz-adv-x="682" 
 />
    <glyph glyph-name="questiondown" unicode="&#xbf;" horiz-adv-x="1458" 
d="M1564 -4l-812.001 -1.00488c-146 14.667 -248.667 36.334 -308 65.001s-100.666 63.334 -123.999 104.001s-51.666 110.334 -84.999 209.001l-129 367.5c-52.667 146.333 -77.5 245.333 -74.5 297s11.333 87.834 25 108.501s61.167 44.334 142.5 71.001l768 -6
c21.333 -84 53.666 -204.667 96.999 -362h-589c61.333 -138 120.333 -293.333 177 -466h849zM922.999 1449l-345 2l-113 354h362z" />
    <glyph glyph-name="Agrave" unicode="&#xc0;" horiz-adv-x="1821" 
 />
    <glyph glyph-name="Aacute" unicode="&#xc1;" horiz-adv-x="1012" 
 />
    <glyph glyph-name="Acircumflex" unicode="&#xc2;" horiz-adv-x="455" 
 />
    <glyph glyph-name="Atilde" unicode="&#xc3;" horiz-adv-x="1251" 
 />
    <glyph glyph-name="Adieresis" unicode="&#xc4;" horiz-adv-x="1618" 
 />
    <glyph glyph-name="Aring" unicode="&#xc5;" horiz-adv-x="1450" 
 />
    <glyph glyph-name="AE" unicode="&#xc6;" horiz-adv-x="1124" 
 />
    <glyph glyph-name="Ccedilla" unicode="&#xc7;" horiz-adv-x="1479" 
 />
    <glyph glyph-name="Egrave" unicode="&#xc8;" horiz-adv-x="1366" 
 />
    <glyph glyph-name="Eacute" unicode="&#xc9;" horiz-adv-x="1489" 
d="M609 1810l302 2c-6 -88 -36 -195.667 -90 -323l-125 -1l-206 -1c34 101.333 59.5 180.5 76.5 237.5s31.167 85.5 42.5 85.5zM467 3c-13.333 177.333 -28.832 326.165 -46.499 446.498s-39.667 233.833 -66 340.5s-57 215.5 -92 326.5s-88.833 273.5 -161.5 487.5h412
l739 -1c74 -147.333 121 -260.666 141 -339.999l-752 6c39.333 -106 69.333 -195 90 -267l751 -6c27.333 -94 51.666 -203 72.999 -327h-752c30.667 -177.333 46.667 -288.333 48 -333l769 -6c10 -111.333 16 -222.666 18 -333.999h-1171v7zM467.001 2.99902
c-13.333 177.333 -28.832 326.165 -46.499 446.498s-39.667 233.833 -66 340.5s-57 215.5 -92 326.5s-88.833 273.5 -161.5 487.5h412l739 -1c74 -147.333 121 -260.666 141 -339.999l-752 6c39.333 -106 69.333 -195 90 -267l751 -6c27.333 -94 51.666 -203 72.999 -327
h-752c30.667 -177.333 46.667 -288.333 48 -333l769 -6c10 -111.333 16 -222.666 18 -333.999h-1171v7zM467.002 2.99805c-13.333 177.333 -28.832 326.165 -46.499 446.498s-39.667 233.833 -66 340.5s-57 215.5 -92 326.5s-88.833 273.5 -161.5 487.5h412l739 -1
c74 -147.333 121 -260.666 141 -339.999l-752 6c39.333 -106 69.333 -195 90 -267l751 -6c27.333 -94 51.666 -203 72.999 -327h-752c30.667 -177.333 46.667 -288.333 48 -333l769 -6c10 -111.333 16 -222.666 18 -333.999h-1171v7z" />
    <glyph glyph-name="Ecircumflex" unicode="&#xca;" horiz-adv-x="1124" 
 />
    <glyph glyph-name="Edieresis" unicode="&#xcb;" horiz-adv-x="1024" 
 />
    <glyph glyph-name="Igrave" unicode="&#xcc;" horiz-adv-x="682" 
 />
    <glyph glyph-name="Iacute" unicode="&#xcd;" horiz-adv-x="342" 
 />
    <glyph glyph-name="Icircumflex" unicode="&#xce;" 
 />
    <glyph glyph-name="Idieresis" unicode="&#xcf;" horiz-adv-x="682" 
 />
    <glyph glyph-name="Eth" unicode="&#xd0;" horiz-adv-x="569" 
 />
    <glyph glyph-name="Ntilde" unicode="&#xd1;" horiz-adv-x="1479" 
 />
    <glyph glyph-name="Ograve" unicode="&#xd2;" 
 />
    <glyph glyph-name="Oacute" unicode="&#xd3;" horiz-adv-x="1024" 
 />
    <glyph glyph-name="Ocircumflex" unicode="&#xd4;" horiz-adv-x="1024" 
 />
    <glyph glyph-name="Otilde" unicode="&#xd5;" horiz-adv-x="1251" 
 />
    <glyph glyph-name="Odieresis" unicode="&#xd6;" horiz-adv-x="1593" 
 />
    <glyph glyph-name="multiply" unicode="&#xd7;" horiz-adv-x="1479" 
 />
    <glyph glyph-name="Oslash" unicode="&#xd8;" horiz-adv-x="2048" 
 />
    <glyph glyph-name="Ugrave" unicode="&#xd9;" horiz-adv-x="682" 
 />
    <glyph glyph-name="Uacute" unicode="&#xda;" horiz-adv-x="570" 
 />
    <glyph glyph-name="Ucircumflex" unicode="&#xdb;" horiz-adv-x="455" 
 />
    <glyph glyph-name="Udieresis" unicode="&#xdc;" horiz-adv-x="1479" 
 />
    <glyph glyph-name="Yacute" unicode="&#xdd;" horiz-adv-x="569" 
 />
    <glyph glyph-name="Thorn" unicode="&#xde;" horiz-adv-x="1593" 
 />
    <glyph glyph-name="germandbls" unicode="&#xdf;" horiz-adv-x="1251" 
 />
    <glyph glyph-name="agrave" unicode="&#xe0;" horiz-adv-x="1479" 
d="M781 1810l300 2c44 -88 75.333 -195.667 94 -323l-125 -1l-205 -1c-23.333 101.333 -42.833 180.5 -58.5 237.5s-17.5 85.5 -5.5 85.5zM1495 1574c14 -66 24.0029 -134.334 30.0029 -205.001s5.5 -159 -1.5 -265s-21.833 -218.667 -44.5 -338
s-48.834 -233.166 -78.501 -341.499s-76.834 -250.833 -141.501 -427.5h-396l96 292l33 140l-395 6l-64 -213l-96 -225h-407c57.333 145.333 100.833 267.833 130.5 367.5s56.5 198 80.5 295s42.667 196.333 56 298s28.166 203.5 44.499 305.5s58.666 181.667 126.999 239
s125.833 87.166 172.5 89.499s137.834 3.33301 273.501 3s329.167 -7.16602 580.5 -20.499zM648.003 764.999l417.002 -6c33.333 132.667 52.166 224.167 56.499 274.5s12.833 137.5 25.5 261.5c-202 13.333 -315.833 6.83301 -341.5 -19.5s-46.334 -65.833 -62.001 -118.5
s-46.167 -181 -91.5 -385zM1495 1574c14 -66 24.0029 -134.334 30.0029 -205.001s5.5 -159 -1.5 -265s-21.833 -218.667 -44.5 -338s-48.834 -233.166 -78.501 -341.499s-76.834 -250.833 -141.501 -427.5h-396l96 292l33 140l-395 6l-64 -213l-96 -225h-407
c57.333 145.333 100.833 267.833 130.5 367.5s56.5 198 80.5 295s42.667 196.333 56 298s28.166 203.5 44.499 305.5s58.666 181.667 126.999 239s125.833 87.166 172.5 89.499s137.834 3.33301 273.501 3s329.167 -7.16602 580.5 -20.499zM648.008 764.998l417.002 -6
c33.333 132.667 52.166 224.167 56.499 274.5s12.833 137.5 25.5 261.5c-202 13.333 -315.833 6.83301 -341.5 -19.5s-46.334 -65.833 -62.001 -118.5s-46.167 -181 -91.5 -385zM1495.01 1574c14 -66 24.0029 -134.334 30.0029 -205.001s5.5 -159 -1.5 -265
s-21.833 -218.667 -44.5 -338s-48.834 -233.166 -78.501 -341.499s-76.834 -250.833 -141.501 -427.5h-396l96 292l33 140l-395 6l-64 -213l-96 -225h-407c57.333 145.333 100.833 267.833 130.5 367.5s56.5 198 80.5 295s42.667 196.333 56 298s28.166 203.5 44.499 305.5
s58.666 181.667 126.999 239s125.833 87.166 172.5 89.499s137.834 3.33301 273.501 3s329.167 -7.16602 580.5 -20.499zM648.013 764.997l417.002 -6c33.333 132.667 52.166 224.167 56.499 274.5s12.833 137.5 25.5 261.5c-202 13.333 -315.833 6.83301 -341.5 -19.5
s-46.334 -65.833 -62.001 -118.5s-46.167 -181 -91.5 -385z" />
    <glyph glyph-name="aacute" unicode="&#xe1;" 
 />
    <glyph glyph-name="acircumflex" unicode="&#xe2;" 
 />
    <glyph glyph-name="atilde" unicode="&#xe3;" 
 />
    <glyph glyph-name="adieresis" unicode="&#xe4;" 
 />
    <glyph glyph-name="aring" unicode="&#xe5;" 
 />
    <glyph glyph-name="ae" unicode="&#xe6;" 
 />
    <glyph glyph-name="ccedilla" unicode="&#xe7;" horiz-adv-x="1513" 
d="M279 -6c-76.667 0 -137.499 20.5049 -182.499 61.5049s-66.667 84.167 -65 129.5s16.667 120.166 45 224.499s57.166 228.833 86.499 373.5s51.333 266.667 66 366s26 180.666 34 243.999s20.5 124.166 37.5 182.499s52.833 111.666 107.5 159.999s121 73.833 199 76.5
s203 2.66699 375 0s376 -6.66699 612 -12l-7 -274l-9 -63l-9 -46l-334 8c-256 0 -393.5 -5.16699 -412.5 -15.5s-35.5 -28 -49.5 -53s-27.5 -69 -40.5 -132s-28.167 -144 -45.5 -243s-33.333 -182.167 -48 -249.5s-23.834 -116.833 -27.501 -148.5
s-4.66699 -54.334 -3 -68.001s13.334 -34.667 35.001 -63s95.167 -42.5 220.5 -42.5h521l-34 -138l-94 -278h-958h-20zM569.001 49.0049l301.999 2c-1.33301 -88 -25.333 -195.667 -72 -323l-125 -1l-206 -1c28.667 101.333 49.834 180.5 63.501 237.5
s26.167 85.5 37.5 85.5z" />
    <glyph glyph-name="egrave" unicode="&#xe8;" horiz-adv-x="1451" 
d="M757 1800l299.999 2c57.333 -88 105 -195.667 143 -323l-124 -1l-205 -1c-39.333 101.333 -71.166 180.5 -95.499 237.5s-30.5 85.5 -18.5 85.5zM5.99902 0c69.333 176 123.499 323.665 162.499 442.998s70.333 232 94 338s44.5 214.167 62.5 324.5
s40.667 269.5 68 477.5h425l729 -1c-3.33301 -142 -13.666 -252.333 -30.999 -331l-743 6c-12 -105.333 -24.333 -193.666 -37 -264.999l743 -6c-16.667 -93.333 -43.667 -201.666 -81 -324.999h-747c-52.667 -176 -89 -286 -109 -330l762 -7
c-42 -110 -88.333 -220.333 -139 -331h-1163zM5.99805 -0.00195312c69.333 176 123.499 323.665 162.499 442.998s70.333 232 94 338s44.5 214.167 62.5 324.5s40.667 269.5 68 477.5h425l729 -1c-3.33301 -142 -13.666 -252.333 -30.999 -331l-743 6
c-12 -105.333 -24.333 -193.666 -37 -264.999l743 -6c-16.667 -93.333 -43.667 -201.666 -81 -324.999h-747c-52.667 -176 -89 -286 -109 -330l762 -7c-42 -110 -88.333 -220.333 -139 -331h-1163zM5.99707 -0.00390625c69.333 176 123.499 323.665 162.499 442.998
s70.333 232 94 338s44.5 214.167 62.5 324.5s40.667 269.5 68 477.5h425l729 -1c-3.33301 -142 -13.666 -252.333 -30.999 -331l-743 6c-12 -105.333 -24.333 -193.666 -37 -264.999l743 -6c-16.667 -93.333 -43.667 -201.666 -81 -324.999h-747
c-52.667 -176 -89 -286 -109 -330l762 -7c-42 -110 -88.333 -220.333 -139 -331h-1163z" />
    <glyph glyph-name="eacute" unicode="&#xe9;" horiz-adv-x="1455" 
d="M898 1810l302 2c-6 -88 -36 -195.667 -90 -323l-125 -1l-206 -1c34 101.333 59.5 180.5 76.5 237.5s31.167 85.5 42.5 85.5zM-1 10c69.333 176 123.499 323.665 162.499 442.998s70.333 232 94 338s44.5 214.167 62.5 324.5s40.667 269.5 68 477.5h425l729 -1
c-3.33301 -142 -13.666 -252.333 -30.999 -331l-743 6c-12 -105.333 -24.333 -193.666 -37 -264.999l743 -6c-16.667 -93.333 -43.667 -201.666 -81 -324.999h-747c-52.667 -176 -89 -286 -109 -330l762 -7c-42 -110 -88.333 -220.333 -139 -331h-1163zM-1.00098 9.99805
c69.333 176 123.499 323.665 162.499 442.998s70.333 232 94 338s44.5 214.167 62.5 324.5s40.667 269.5 68 477.5h425l729 -1c-3.33301 -142 -13.666 -252.333 -30.999 -331l-743 6c-12 -105.333 -24.333 -193.666 -37 -264.999l743 -6
c-16.667 -93.333 -43.667 -201.666 -81 -324.999h-747c-52.667 -176 -89 -286 -109 -330l762 -7c-42 -110 -88.333 -220.333 -139 -331h-1163zM-1.00195 9.99609c69.333 176 123.499 323.665 162.499 442.998s70.333 232 94 338s44.5 214.167 62.5 324.5
s40.667 269.5 68 477.5h425l729 -1c-3.33301 -142 -13.666 -252.333 -30.999 -331l-743 6c-12 -105.333 -24.333 -193.666 -37 -264.999l743 -6c-16.667 -93.333 -43.667 -201.666 -81 -324.999h-747c-52.667 -176 -89 -286 -109 -330l762 -7
c-42 -110 -88.333 -220.333 -139 -331h-1163z" />
    <glyph glyph-name="ecircumflex" unicode="&#xea;" 
 />
    <glyph glyph-name="edieresis" unicode="&#xeb;" 
d="M447 -1c-6.66699 128.667 -9.66895 198.001 -9.00195 208.001c-30 242.667 -52.667 404.5 -68 485.5s-36.666 172.167 -63.999 273.5s-67.833 234.5 -121.5 399.5s-105.167 312.833 -154.5 443.5c78.667 0 155.834 1.33301 231.501 4s221.667 4 438 4
s474.5 -2.66699 774.5 -8l64 -129c116 -288.667 206 -548.834 270 -780.501s120.333 -533.167 169 -904.5l-171 -1c-625.333 0 -1078.33 1.66699 -1359 5z" />
    <glyph glyph-name="igrave" unicode="&#xec;" horiz-adv-x="569" 
 />
    <glyph glyph-name="iacute" unicode="&#xed;" horiz-adv-x="569" 
 />
    <glyph glyph-name="icircumflex" unicode="&#xee;" horiz-adv-x="569" 
 />
    <glyph glyph-name="idieresis" unicode="&#xef;" horiz-adv-x="569" 
 />
    <glyph glyph-name="eth" unicode="&#xf0;" horiz-adv-x="569" 
 />
    <glyph glyph-name="ntilde" unicode="&#xf1;" 
 />
    <glyph glyph-name="ograve" unicode="&#xf2;" 
 />
    <glyph glyph-name="oacute" unicode="&#xf3;" 
 />
    <glyph glyph-name="ocircumflex" unicode="&#xf4;" 
 />
    <glyph glyph-name="otilde" unicode="&#xf5;" 
 />
    <glyph glyph-name="odieresis" unicode="&#xf6;" 
 />
    <glyph glyph-name="divide" unicode="&#xf7;" horiz-adv-x="2048" 
 />
    <glyph glyph-name="oslash" unicode="&#xf8;" horiz-adv-x="1180" 
 />
    <glyph glyph-name="ugrave" unicode="&#xf9;" horiz-adv-x="1489" 
d="M872 1810l214 1.99902c31.333 -78.667 53.333 -174.667 66 -288l-88 -1l-146 -1c-16.667 90.667 -30.5 161.334 -41.5 212.001s-12.5 76 -4.5 76zM385 1608l450.003 0.00195312c-7.33301 -131.333 -21.333 -250.833 -42 -358.5s-42.834 -215.5 -66.501 -323.5
s-56.167 -221.5 -97.5 -340.5s-55.166 -191.833 -41.499 -218.5s40.167 -39 79.5 -37s81.5 3 126.5 3s82.5 4.5 112.5 13.5s53.667 29.167 71 60.5s40.333 91.833 69 181.5s56.667 194.167 84 313.5s49.666 234.166 66.999 344.499s26.666 230.5 27.999 360.5h414
c6.66699 -103.333 5.16699 -201 -4.5 -293s-24.5 -190.833 -44.5 -296.5s-49.5 -226 -88.5 -361s-84 -257.333 -135 -367s-113.5 -183.834 -187.5 -222.501s-189.833 -58 -347.5 -58s-311.167 -1.16699 -460.5 -3.5s-246.333 14.667 -291 51s-45.834 105 -3.50098 206
s85 219.667 128 356s77.5 276.833 103.5 421.5s51.667 334 77 568zM385.003 1608l450.003 0.00195312c-7.33301 -131.333 -21.333 -250.833 -42 -358.5s-42.834 -215.5 -66.501 -323.5s-56.167 -221.5 -97.5 -340.5s-55.166 -191.833 -41.499 -218.5s40.167 -39 79.5 -37
s81.5 3 126.5 3s82.5 4.5 112.5 13.5s53.667 29.167 71 60.5s40.333 91.833 69 181.5s56.667 194.167 84 313.5s49.666 234.166 66.999 344.499s26.666 230.5 27.999 360.5h414c6.66699 -103.333 5.16699 -201 -4.5 -293s-24.5 -190.833 -44.5 -296.5s-49.5 -226 -88.5 -361
s-84 -257.333 -135 -367s-113.5 -183.834 -187.5 -222.501s-189.833 -58 -347.5 -58s-311.167 -1.16699 -460.5 -3.5s-246.333 14.667 -291 51s-45.834 105 -3.50098 206s85 219.667 128 356s77.5 276.833 103.5 421.5s51.667 334 77 568zM385.006 1608l450.003 0.00195312
c-7.33301 -131.333 -21.333 -250.833 -42 -358.5s-42.834 -215.5 -66.501 -323.5s-56.167 -221.5 -97.5 -340.5s-55.166 -191.833 -41.499 -218.5s40.167 -39 79.5 -37s81.5 3 126.5 3s82.5 4.5 112.5 13.5s53.667 29.167 71 60.5s40.333 91.833 69 181.5
s56.667 194.167 84 313.5s49.666 234.166 66.999 344.499s26.666 230.5 27.999 360.5h414c6.66699 -103.333 5.16699 -201 -4.5 -293s-24.5 -190.833 -44.5 -296.5s-49.5 -226 -88.5 -361s-84 -257.333 -135 -367s-113.5 -183.834 -187.5 -222.501s-189.833 -58 -347.5 -58
s-311.167 -1.16699 -460.5 -3.5s-246.333 14.667 -291 51s-45.834 105 -3.50098 206s85 219.667 128 356s77.5 276.833 103.5 421.5s51.667 334 77 568z" />
    <glyph glyph-name="uacute" unicode="&#xfa;" 
 />
    <glyph glyph-name="ucircumflex" unicode="&#xfb;" 
 />
    <glyph glyph-name="udieresis" unicode="&#xfc;" 
 />
    <glyph glyph-name="yacute" unicode="&#xfd;" horiz-adv-x="1593" 
 />
    <glyph glyph-name="thorn" unicode="&#xfe;" horiz-adv-x="1593" 
 />
    <glyph glyph-name="ydieresis" unicode="&#xff;" horiz-adv-x="1366" 
 />
    <glyph glyph-name="dotlessi" unicode="&#x131;" horiz-adv-x="682" 
 />
    <glyph glyph-name="Lslash" unicode="&#x141;" horiz-adv-x="682" 
 />
    <glyph glyph-name="lslash" unicode="&#x142;" horiz-adv-x="682" 
 />
    <glyph glyph-name="OE" unicode="&#x152;" horiz-adv-x="682" 
 />
    <glyph glyph-name="oe" unicode="&#x153;" horiz-adv-x="1196" 
 />
    <glyph glyph-name="Scaron" unicode="&#x160;" horiz-adv-x="1366" 
 />
    <glyph glyph-name="scaron" unicode="&#x161;" horiz-adv-x="1366" 
 />
    <glyph glyph-name="Ydieresis" unicode="&#x178;" horiz-adv-x="1366" 
 />
    <glyph glyph-name="Zcaron" unicode="&#x17d;" horiz-adv-x="682" 
 />
    <glyph glyph-name="zcaron" unicode="&#x17e;" horiz-adv-x="682" 
 />
    <glyph glyph-name="florin" unicode="&#x192;" horiz-adv-x="1124" 
 />
    <glyph glyph-name="circumflex" unicode="&#x2c6;" horiz-adv-x="2048" 
 />
    <glyph glyph-name="caron" unicode="&#x2c7;" horiz-adv-x="1593" 
 />
    <glyph glyph-name="breve" unicode="&#x2d8;" horiz-adv-x="682" 
 />
    <glyph glyph-name="dotaccent" unicode="&#x2d9;" horiz-adv-x="1708" 
 />
    <glyph glyph-name="ring" unicode="&#x2da;" horiz-adv-x="1708" 
 />
    <glyph glyph-name="ogonek" unicode="&#x2db;" 
 />
    <glyph glyph-name="tilde" unicode="&#x2dc;" horiz-adv-x="1366" 
 />
    <glyph glyph-name="hungarumlaut" unicode="&#x2dd;" horiz-adv-x="1708" 
 />
    <glyph glyph-name="pi" unicode="&#x3c0;" horiz-adv-x="1315" 
 />
    <glyph glyph-name="endash" unicode="&#x2013;" horiz-adv-x="1124" 
 />
    <glyph glyph-name="emdash" unicode="&#x2014;" 
 />
    <glyph glyph-name="quoteleft" unicode="&#x2018;" 
 />
    <glyph glyph-name="quoteright" unicode="&#x2019;" 
 />
    <glyph glyph-name="quotesinglbase" unicode="&#x201a;" horiz-adv-x="682" 
 />
    <glyph glyph-name="quotedblleft" unicode="&#x201c;" horiz-adv-x="1124" 
 />
    <glyph glyph-name="quotedblright" unicode="&#x201d;" horiz-adv-x="1253" 
 />
    <glyph glyph-name="quotedblbase" unicode="&#x201e;" horiz-adv-x="682" 
 />
    <glyph glyph-name="dagger" unicode="&#x2020;" 
 />
    <glyph glyph-name="daggerdbl" unicode="&#x2021;" 
 />
    <glyph glyph-name="bullet" unicode="&#x2022;" horiz-adv-x="717" 
 />
    <glyph glyph-name="ellipsis" unicode="&#x2026;" horiz-adv-x="748" 
 />
    <glyph glyph-name="perthousand" unicode="&#x2030;" horiz-adv-x="455" 
 />
    <glyph glyph-name="guilsinglleft" unicode="&#x2039;" horiz-adv-x="2048" 
 />
    <glyph glyph-name="guilsinglright" unicode="&#x203a;" horiz-adv-x="1933" 
 />
    <glyph glyph-name="fraction" unicode="&#x2044;" 
 />
    <glyph glyph-name="trademark" unicode="&#x2122;" horiz-adv-x="2048" 
 />
    <glyph glyph-name="Omega" unicode="&#x2126;" horiz-adv-x="1479" 
 />
    <glyph glyph-name="partialdiff" unicode="&#x2202;" horiz-adv-x="1366" 
 />
    <glyph glyph-name="Delta" unicode="&#x2206;" horiz-adv-x="1024" 
 />
    <glyph glyph-name="product" unicode="&#x220f;" horiz-adv-x="1251" 
 />
    <glyph glyph-name="summation" unicode="&#x2211;" horiz-adv-x="1024" 
 />
    <glyph glyph-name="minus" unicode="&#x2212;" horiz-adv-x="1479" 
 />
    <glyph glyph-name="radical" unicode="&#x221a;" 
 />
    <glyph glyph-name="infinity" unicode="&#x221e;" horiz-adv-x="682" 
 />
    <glyph glyph-name="integral" unicode="&#x222b;" horiz-adv-x="532" 
 />
    <glyph glyph-name="approxequal" unicode="&#x2248;" horiz-adv-x="1366" 
 />
    <glyph glyph-name="notequal" unicode="&#x2260;" horiz-adv-x="682" 
 />
    <glyph glyph-name="lessequal" unicode="&#x2264;" 
 />
    <glyph glyph-name="greaterequal" unicode="&#x2265;" horiz-adv-x="455" 
 />
    <glyph glyph-name="lozenge" unicode="&#x25ca;" horiz-adv-x="1366" 
 />
    <glyph glyph-name="fi" unicode="&#xfb01;" horiz-adv-x="1196" 
 />
    <glyph glyph-name="fl" unicode="&#xfb02;" horiz-adv-x="1196" 
 />
    <glyph glyph-name=".null" horiz-adv-x="0" 
 />
    <glyph glyph-name="nonmarkingreturn" horiz-adv-x="569" 
 />
    <glyph glyph-name="percent" horiz-adv-x="1511" 
d="M1106 1795h227l-796 -1792h-225zM275 1456c-2.66699 34.667 -4.83594 57.832 -6.50293 69.499s-4.16699 24.834 -7.5 39.501s-8.5 33.667 -15.5 57s-11.167 38 -12.5 44s0 10.833 4 14.5s10.833 5.66699 20.5 6s28.334 0.5 56.001 0.5s48.334 -0.166992 62.001 -0.5
s24.667 -3.5 33 -9.5s15.833 -19.5 22.5 -40.5s12.834 -42.667 18.501 -65s9.83398 -41.5 12.501 -57.5s4.66699 -30 6 -42s1 -20.667 -1 -26s-5.33301 -10.166 -10 -14.499s-10.667 -6.66602 -18 -6.99902s-27.333 -0.333008 -60 0s-54.667 0.5 -66 0.5
s-19.5 2.16699 -24.5 6.5s-8.33301 9.16602 -10 14.499s-2.83398 8.66602 -3.50098 9.99902zM90.998 1352c-0.666992 -2.66699 0.833984 -9.00391 4.50098 -19.0039s12.167 -19 25.5 -27s36.166 -12 68.499 -12s95.333 -0.333008 189 -1s151 -0.666992 172 0
s39 4.83398 54 12.501s26.167 16.667 33.5 27s10.833 26.833 10.5 49.5s-2 49.167 -5 79.5s-9 66.833 -18 109.5s-20.5 83.834 -34.5 123.501s-31.667 65.334 -53 77.001s-51.5 17.834 -90.5 18.501s-98.167 1 -177.5 1s-133 -0.333008 -161 -1s-48.333 -4.5 -61 -11.5
s-18.167 -16.333 -16.5 -28s9.16699 -39.667 22.5 -84s22.5 -80.333 27.5 -108s8.16699 -96.5 9.5 -206.5zM1236 149.994c-2.66699 34.667 -4.83594 57.832 -6.50293 69.499s-4.16699 24.834 -7.5 39.501s-8.5 33.667 -15.5 57s-11.167 38 -12.5 44s0 10.833 4 14.5
s10.833 5.66699 20.5 6s28.334 0.5 56.001 0.5s48.334 -0.166992 62.001 -0.5s24.667 -3.5 33 -9.5s15.833 -19.5 22.5 -40.5s12.834 -42.667 18.501 -65s9.83398 -41.5 12.501 -57.5s4.66699 -30 6 -42s1 -20.667 -1 -26s-5.33301 -10.166 -10 -14.499
s-10.667 -6.66602 -18 -6.99902s-27.333 -0.333008 -60 0s-54.667 0.5 -66 0.5s-19.5 2.16699 -24.5 6.5s-8.33301 9.16602 -10 14.499s-2.83398 8.66602 -3.50098 9.99902zM1052 53.9922c-0.666992 -2.66699 0.833984 -9.00391 4.50098 -19.0039s12.167 -19 25.5 -27
s36.166 -12 68.499 -12s95.333 -0.333008 189 -1s151 -0.666992 172 0s39 4.83398 54 12.501s26.167 16.667 33.5 27s10.833 26.833 10.5 49.5s-2 49.167 -5 79.5s-9 66.833 -18 109.5s-20.5 83.834 -34.5 123.501s-31.667 65.334 -53 77.001s-51.5 17.834 -90.5 18.501
s-98.167 1 -177.5 1s-133 -0.333008 -161 -1s-48.333 -4.5 -61 -11.5s-18.167 -16.333 -16.5 -28s9.16699 -39.667 22.5 -84s22.5 -80.333 27.5 -108s8.16699 -96.5 9.5 -206.5zM1236 149.988c-2.66699 34.667 -4.83594 57.832 -6.50293 69.499s-4.16699 24.834 -7.5 39.501
s-8.5 33.667 -15.5 57s-11.167 38 -12.5 44s0 10.833 4 14.5s10.833 5.66699 20.5 6s28.334 0.5 56.001 0.5s48.334 -0.166992 62.001 -0.5s24.667 -3.5 33 -9.5s15.833 -19.5 22.5 -40.5s12.834 -42.667 18.501 -65s9.83398 -41.5 12.501 -57.5s4.66699 -30 6 -42
s1 -20.667 -1 -26s-5.33301 -10.166 -10 -14.499s-10.667 -6.66602 -18 -6.99902s-27.333 -0.333008 -60 0s-54.667 0.5 -66 0.5s-19.5 2.16699 -24.5 6.5s-8.33301 9.16602 -10 14.499s-2.83398 8.66602 -3.50098 9.99902zM1052 53.9863
c-0.666992 -2.66699 0.833984 -9.00391 4.50098 -19.0039s12.167 -19 25.5 -27s36.166 -12 68.499 -12s95.333 -0.333008 189 -1s151 -0.666992 172 0s39 4.83398 54 12.501s26.167 16.667 33.5 27s10.833 26.833 10.5 49.5s-2 49.167 -5 79.5s-9 66.833 -18 109.5
s-20.5 83.834 -34.5 123.501s-31.667 65.334 -53 77.001s-51.5 17.834 -90.5 18.501s-98.167 1 -177.5 1s-133 -0.333008 -161 -1s-48.333 -4.5 -61 -11.5s-18.167 -16.333 -16.5 -28s9.16699 -39.667 22.5 -84s22.5 -80.333 27.5 -108s8.16699 -96.5 9.5 -206.5z
M1236 149.982c-2.66699 34.667 -4.83594 57.832 -6.50293 69.499s-4.16699 24.834 -7.5 39.501s-8.5 33.667 -15.5 57s-11.167 38 -12.5 44s0 10.833 4 14.5s10.833 5.66699 20.5 6s28.334 0.5 56.001 0.5s48.334 -0.166992 62.001 -0.5s24.667 -3.5 33 -9.5
s15.833 -19.5 22.5 -40.5s12.834 -42.667 18.501 -65s9.83398 -41.5 12.501 -57.5s4.66699 -30 6 -42s1 -20.667 -1 -26s-5.33301 -10.166 -10 -14.499s-10.667 -6.66602 -18 -6.99902s-27.333 -0.333008 -60 0s-54.667 0.5 -66 0.5s-19.5 2.16699 -24.5 6.5
s-8.33301 9.16602 -10 14.499s-2.83398 8.66602 -3.50098 9.99902zM1052 53.9805c-0.666992 -2.66699 0.833984 -9.00391 4.50098 -19.0039s12.167 -19 25.5 -27s36.166 -12 68.499 -12s95.333 -0.333008 189 -1s151 -0.666992 172 0s39 4.83398 54 12.501
s26.167 16.667 33.5 27s10.833 26.833 10.5 49.5s-2 49.167 -5 79.5s-9 66.833 -18 109.5s-20.5 83.834 -34.5 123.501s-31.667 65.334 -53 77.001s-51.5 17.834 -90.5 18.501s-98.167 1 -177.5 1s-133 -0.333008 -161 -1s-48.333 -4.5 -61 -11.5s-18.167 -16.333 -16.5 -28
s9.16699 -39.667 22.5 -84s22.5 -80.333 27.5 -108s8.16699 -96.5 9.5 -206.5z" />
    <glyph glyph-name="apple" horiz-adv-x="682" 
 />
  </font>
</defs>
</svg>
