<?xml version="1.0" standalone="no"?>
<!DOCTYPE svg PUBLIC "-//W3C//DTD SVG 1.1//EN" "http://www.w3.org/Graphics/SVG/1.1/DTD/svg11.dtd" >
<svg>
<metadata>
Created by FontForge 20090914 at Tue Apr 28 10:40:50 2015
 By www-data
Copyright David Fens 2013
</metadata>
<defs>
<font id="Mario-Kart-DS" horiz-adv-x="659" >
  <font-face 
    font-family="Mario Kart DS"
    font-weight="400"
    font-stretch="normal"
    units-per-em="1024"
    panose-1="0 0 4 0 0 0 0 0 0 0"
    ascent="819"
    descent="-205"
    x-height="576"
    cap-height="640"
    bbox="0 -128 704 704"
    underline-thickness="51"
    underline-position="126"
    unicode-range="U+0020-U+2019"
  />
<missing-glyph horiz-adv-x="147" 
d="M288 81v92h-92v-92h92zM379 188v92h-183v-92h183zM288 295v92h-92v-92h92zM379 402v91h-91c-26 0 -47.667 -8.66699 -65 -26c-18 -18 -27 -39.667 -27 -65h183zM0 0v576h576v-576h-576z" />
    <glyph glyph-name=".notdef" horiz-adv-x="147" 
d="M288 81v92h-92v-92h92zM379 188v92h-183v-92h183zM288 295v92h-92v-92h92zM379 402v91h-91c-26 0 -47.667 -8.66699 -65 -26c-18 -18 -27 -39.667 -27 -65h183zM0 0v576h576v-576h-576z" />
    <glyph glyph-name="space" unicode=" " horiz-adv-x="147" 
 />
    <glyph glyph-name="exclam" unicode="!" horiz-adv-x="275" 
d="M0 0v128h128v-128h-128zM0 192v384h192v-192h-64v-192h-128z" />
    <glyph glyph-name="ampersand" unicode="&#x26;" 
d="M256 64v64h64v128h-64v64h-64v-64h-64v-128h64v-64h64zM320 384v128h-128v-128h128zM128 0v64h-64v64h-64v128h64v64h64v64h-64v128h64v64h256v-64h64v-128h-64v-128h64v64h64v-64h64v-64h-64v-64h64v-64h-64v-64h-64v64h-128v-64h-192z" />
    <glyph glyph-name="hyphen" unicode="-" horiz-adv-x="403" 
d="M0 256v128h320v-128h-320z" />
    <glyph glyph-name="period" unicode="." horiz-adv-x="211" 
d="M0 0v128h128v-128h-128z" />
    <glyph glyph-name="zero" unicode="0" horiz-adv-x="595" 
d="M320 128v64h64v192h-64v64h-128v-64h-64v-192h64v-64h128zM128 0v64h-64v64h-64v320h64v64h64v64h256v-64h64v-64h64v-320h-64v-64h-64v-64h-256z" />
    <glyph glyph-name="one" unicode="1" horiz-adv-x="275" 
d="M64 0v448h-64v128h192v-576h-128z" />
    <glyph glyph-name="two" unicode="2" horiz-adv-x="531" 
d="M0 0v192h64v64h64v64h64v64h64v64h-256v128h320v-64h64v-64h64v-64h-64v-64h-64v-64h-64v-64h-64v-64h256v-128h-448z" />
    <glyph glyph-name="three" unicode="3" horiz-adv-x="531" 
d="M0 0v128h256v64h-64v64h-64v64h64v64h64v64h-256v128h320v-64h64v-64h64v-64h-64v-64h-64v-64h64v-64h64v-64h-64v-64h-64v-64h-320z" />
    <glyph glyph-name="four" unicode="4" 
d="M320 0v64h-192v64h-64v64h-64v128h64v64h64v64h64v64h64v64h64v-64h64v-64h-64v-64h-64v-64h-64v-64h-64v-64h192v192h128v-192h128v-128h-128v-64h-128z" />
    <glyph glyph-name="five" unicode="5" horiz-adv-x="531" 
d="M0 0v128h256v128h-256v320h384v-128h-320v-128h320v-64h64v-128h-64v-64h-64v-64h-320z" />
    <glyph glyph-name="six" unicode="6" 
d="M384 128v128h-192v-128h192zM128 0v64h-64v64h-64v192h64v64h64v64h64v64h64v64h64v-64h64v-64h-64v-64h-64v-64h256v-64h64v-128h-64v-64h-64v-64h-320z" />
    <glyph glyph-name="seven" unicode="7" horiz-adv-x="595" 
d="M192 0v192h64v128h64v128h-192v-64h-128v192h384v-64h64v-64h64v-64h-64v-128h-64v-128h-64v-128h-128z" />
    <glyph glyph-name="eight" unicode="8" 
d="M384 128v128h-192v-128h192zM384 384v128h-192v-128h192zM128 0v64h-64v64h-64v64h64v64h64v64h-64v64h-64v64h64v64h64v64h320v-64h64v-64h64v-64h-64v-64h-64v-64h64v-64h64v-64h-64v-64h-64v-64h-320z" />
    <glyph glyph-name="nine" unicode="9" 
d="M384 320v128h-192v-128h192zM256 0v128h64v128h-256v64h-64v128h64v64h64v64h320v-64h64v-64h64v-128h-64v-64h-64v-128h-64v-128h-128z" />
    <glyph glyph-name="question" unicode="?" horiz-adv-x="595" 
d="M192 0v128h128v-128h-128zM192 192v128h64v64h64v64h-128v-64h-64v-64h-64v64h-64v64h64v64h64v64h256v-64h64v-64h64v-64h-64v-64h-64v-64h-64v-64h-128z" />
    <glyph glyph-name="A" unicode="A" horiz-adv-x="723" 
d="M256 192v192h192v-192h-192zM576 0v448h-64v64h-64v64h-192v-128h-64v-128h-64v-128h-64v-192h192v128h128v-128h192zM0 -128v384h64v128h64v128h64v128h320v-64h64v-64h64v-640h-640z" />
    <glyph glyph-name="B" unicode="B" horiz-adv-x="723" 
d="M192 128v128h192v-128h-192zM192 320v128h192v-128h-192zM448 0v64h64v64h64v128h-64v64h-64v64h64v128h-64v64h-384v-576h384zM0 -128v768h512v-64h64v-256h64v-320h-64v-64h-64v-64h-512z" />
    <glyph glyph-name="C" unicode="C" horiz-adv-x="723" 
d="M448 0v64h64v64h64v64h-64v64h-64v-64h-64v-64h-128v64h-64v192h64v64h128v-64h64v-64h64v64h64v64h-64v64h-64v64h-192v-64h-64v-64h-64v-64h-64v-256h64v-64h64v-64h256zM128 -128v64h-64v64h-64v448h64v64h64v64h64v64h320v-64h64v-64h64v-512h-64v-64h-64v-64h-384z
" />
    <glyph glyph-name="D" unicode="D" 
d="M192 128v320h128v-64h64v-128h-64v-64h-64v-64h-64zM320 0v64h64v64h64v64h64v192h-64v64h-64v64h-64v64h-256v-576h256zM0 -128v768h384v-64h64v-64h64v-64h64v-384h-64v-64h-64v-64h-64v-64h-384z" />
    <glyph glyph-name="E" unicode="E" 
d="M512 0v128h-320v128h256v64h-256v128h320v128h-448v-576h448zM0 -128v768h576v-256h-64v-192h64v-320h-576z" />
    <glyph glyph-name="F" unicode="F" 
d="M192 0v256h256v64h-256v128h320v128h-448v-576h128zM0 -128v768h576v-256h-64v-256h-256v-256h-256z" />
    <glyph glyph-name="G" unicode="G" horiz-adv-x="723" 
d="M448 0v64h64v64h64v192h-256v-64h128v-64h-64v-64h-128v64h-64v192h64v64h128v-64h192v64h-64v64h-64v64h-192v-64h-64v-64h-64v-64h-64v-256h64v-64h64v-64h256zM128 -128v64h-64v64h-64v448h64v64h64v64h64v64h320v-64h64v-64h64v-512h-64v-64h-64v-64h-384z" />
    <glyph glyph-name="H" unicode="H" horiz-adv-x="723" 
d="M576 0v640h-128v-256h-192v256h-192v-640h128v192h256v-192h128zM0 -128v832h320v-256h64v256h256v-832h-256v192h-128v-192h-256z" />
    <glyph glyph-name="I" unicode="I" horiz-adv-x="467" 
d="M192 0v192h64v192h64v192h-256v-576h128zM0 -128v768h384v-384h-64v-192h-64v-192h-256z" />
    <glyph glyph-name="J" unicode="J" horiz-adv-x="723" 
d="M448 0v64h64v64h64v448h-192v-128h64v-256h-64v-64h-128v64h-64v64h-64v-64h-64v-64h64v-64h64v-64h256zM128 -128v64h-64v64h-64v256h64v64h192v-64h128v128h-64v256h320v-640h-64v-64h-64v-64h-384z" />
    <glyph glyph-name="K" unicode="K" 
d="M448 0v64h64v64h-64v64h-64v64h-64v64h64v64h64v64h64v64h-64v64h-64v-64h-64v-64h-64v-64h-64v192h-128v-576h128v192h64v-64h64v-64h64v-64h64zM0 -128v768h256v-64h64v64h192v-64h64v-256h-64v-128h64v-256h-64v-64h-192v64h-64v-64h-256z" />
    <glyph glyph-name="L" unicode="L" horiz-adv-x="723" 
d="M576 0v128h-320v192h64v256h-128v-192h-64v-192h-64v-192h512zM0 -128v384h64v192h64v192h256v-448h256v-320h-640z" />
    <glyph glyph-name="M" unicode="M" horiz-adv-x="787" 
d="M640 0v192h-64v384h-128v-192h-64v-64h-64v64h-64v192h-128v-384h-64v-192h128v192h64v-64h64v-64h64v64h64v64h64v-192h128zM0 -128v384h64v384h256v-192h64v192h256v-384h64v-384h-256v64h-192v-64h-256z" />
    <glyph glyph-name="N" unicode="N" horiz-adv-x="723" 
d="M192 0v320h64v-64h64v-64h64v-64h64v-64h128v512h-128v-256h-64v64h-64v64h-64v64h-64v64h-64v-64h-64v-512h128zM0 -128v704h64v64h192v-64h64v-64h64v128h256v-704h-256v64h-64v64h-64v-192h-256z" />
    <glyph glyph-name="O" unicode="O" horiz-adv-x="723" 
d="M256 128v64h-64v192h64v64h128v-64h64v-192h-64v-64h-128zM448 0v64h64v64h64v320h-64v64h-64v64h-192v-64h-64v-64h-64v-64h-64v-256h64v-64h64v-64h256zM128 -128v64h-64v64h-64v448h64v64h64v64h64v64h320v-64h64v-64h64v-512h-64v-64h-64v-64h-384z" />
    <glyph glyph-name="P" unicode="P" 
d="M192 256v192h192v-192h-192zM192 0v192h256v64h64v192h-64v64h-64v64h-320v-576h128zM0 -128v768h448v-64h64v-64h64v-384h-64v-64h-256v-192h-256z" />
    <glyph glyph-name="Q" unicode="Q" horiz-adv-x="787" 
d="M256 128v64h-64v192h64v64h128v-64h64v-128h-128v-64h64v-64h-128zM576 0v64h64v64h-64v320h-64v64h-64v64h-256v-64h-64v-64h-64v-320h64v-64h64v-64h256v64h64v-64h64zM128 -128v64h-64v64h-64v512h64v64h64v64h384v-64h64v-64h64v-320h64v-256h-64v-64h-512z" />
    <glyph glyph-name="R" unicode="R" horiz-adv-x="723" 
d="M192 256v192h256v-128h-64v-64h-192zM512 0v64h64v64h-64v64h-64v64h64v64h64v128h-64v64h-64v64h-384v-576h128v192h128v-64h64v-64h64v-64h64zM0 -128v768h512v-64h64v-64h64v-576h-64v-64h-192v64h-64v64h-64v-128h-256z" />
    <glyph glyph-name="S" unicode="S" horiz-adv-x="723" 
d="M512 0v64h64v192h-64v64h-192v64h-64v64h192v-64h64v64h64v64h-64v64h-320v-64h-64v-64h-64v-64h64v-64h128v-64h128v-64h64v-64h-192v64h-64v64h-64v-64h-64v-64h64v-64h64v-64h320zM128 -128v64h-64v64h-64v512h64v64h64v64h448v-64h64v-640h-64v-64h-448z" />
    <glyph glyph-name="T" unicode="T" horiz-adv-x="723" 
d="M384 0v448h192v128h-512v-128h192v-256h-64v-192h192zM128 -128v384h64v64h-192v320h640v-320h-192v-448h-320z" />
    <glyph glyph-name="U" unicode="U" horiz-adv-x="787" 
d="M512 0v64h64v64h64v384h-128v-320h-64v-64h-192v64h-64v384h-128v-448h64v-64h64v-64h320zM128 -128v64h-64v64h-64v640h256v-384h192v320h256v-576h-64v-64h-64v-64h-448z" />
    <glyph glyph-name="V" unicode="V" horiz-adv-x="787" 
d="M448 0v128h64v128h64v128h64v128h-64v64h-64v-128h-64v-128h-64v-128h-64v128h-64v128h-64v128h-64v-64h-64v-128h64v-128h64v-128h64v-128h192zM192 -128v128h-64v128h-64v128h-64v320h64v64h192v-128h64v-128h64v128h64v128h192v-64h64v-320h-64v-128h-64v-128h-64
v-128h-320z" />
    <glyph glyph-name="W" unicode="W" horiz-adv-x="787" 
d="M576 0v192h64v384h-128v-320h-64v64h-64v64h-64v-64h-64v-64h-64v320h-128v-384h64v-192h64v64h64v64h64v64h64v-64h64v-64h64v-64h64zM64 -128v192h-64v576h256v-192h192v192h256v-576h-64v-192h-192v64h-64v64h-64v-64h-64v-64h-192z" />
    <glyph glyph-name="X" unicode="X" horiz-adv-x="723" 
d="M512 0v64h64v64h-64v64h-64v64h-64v64h64v64h64v64h64v64h-64v64h-64v-64h-64v-64h-128v64h-64v64h-64v-64h-64v-64h64v-64h64v-64h64v-64h-64v-64h-64v-64h-64v-64h64v-64h64v64h64v64h128v-64h64v-64h64zM64 -128v64h-64v256h64v128h-64v256h64v64h192v-64h128v64h192
v-64h64v-256h-64v-128h64v-256h-64v-64h-192v64h-128v-64h-192z" />
    <glyph glyph-name="Y" unicode="Y" horiz-adv-x="787" 
d="M448 0v320h64v64h64v64h64v64h-64v64h-64v-64h-64v-64h-64v-64h-64v64h-64v64h-64v64h-64v-64h-64v-64h64v-64h64v-64h64v-320h192zM192 -128v320h-64v64h-64v64h-64v256h64v64h192v-64h64v-64h64v64h64v64h192v-64h64v-192h-64v-128h-64v-64h-64v-320h-320z" />
    <glyph glyph-name="Z" unicode="Z" 
d="M512 0v128h-256v64h64v64h64v64h64v64h64v128h-64v64h-384v-128h256v-64h-64v-64h-64v-64h-64v-64h-64v-192h448zM0 -128v384h64v64h-64v320h512v-64h64v-320h-64v-64h64v-320h-576z" />
    <glyph glyph-name="a" unicode="a" horiz-adv-x="595" 
d="M384 192v192h-192v-192h192zM0 0v192h64v128h64v128h64v128h192v-64h64v-64h64v-448h-192v128h-128v-128h-192z" />
    <glyph glyph-name="b" unicode="b" horiz-adv-x="595" 
d="M320 128v128h-192v-128h192zM320 320v128h-192v-128h192zM0 0v576h384v-64h64v-128h-64v-64h64v-64h64v-128h-64v-64h-64v-64h-384z" />
    <glyph glyph-name="c" unicode="c" horiz-adv-x="595" 
d="M128 0v64h-64v64h-64v256h64v64h64v64h64v64h192v-64h64v-64h64v-64h-64v-64h-64v64h-64v64h-128v-64h-64v-192h64v-64h128v64h64v64h64v-64h64v-64h-64v-64h-64v-64h-256z" />
    <glyph glyph-name="d" unicode="d" horiz-adv-x="531" 
d="M192 128v64h64v64h64v128h-64v64h-128v-320h64zM0 0v576h256v-64h64v-64h64v-64h64v-192h-64v-64h-64v-64h-64v-64h-256z" />
    <glyph glyph-name="e" unicode="e" horiz-adv-x="531" 
d="M0 0v576h448v-128h-320v-128h256v-64h-256v-128h320v-128h-448z" />
    <glyph glyph-name="f" unicode="f" horiz-adv-x="531" 
d="M0 0v576h448v-128h-320v-128h256v-64h-256v-256h-128z" />
    <glyph glyph-name="g" unicode="g" horiz-adv-x="595" 
d="M128 0v64h-64v64h-64v256h64v64h64v64h64v64h192v-64h64v-64h64v-64h-192v64h-128v-64h-64v-192h64v-64h128v64h64v64h-128v64h256v-192h-64v-64h-64v-64h-256z" />
    <glyph glyph-name="h" unicode="h" horiz-adv-x="595" 
d="M0 0v576h192v-256h192v256h128v-576h-128v192h-256v-192h-128z" />
    <glyph glyph-name="i" unicode="i" horiz-adv-x="339" 
d="M0 0v576h256v-192h-64v-192h-64v-192h-128z" />
    <glyph glyph-name="j" unicode="j" horiz-adv-x="595" 
d="M128 0v64h-64v64h-64v64h64v64h64v-64h64v-64h128v64h64v256h-64v128h192v-448h-64v-64h-64v-64h-256z" />
    <glyph glyph-name="k" unicode="k" horiz-adv-x="531" 
d="M0 0v576h128v-192h64v64h64v64h64v64h64v-64h64v-64h-64v-64h-64v-64h-64v-64h64v-64h64v-64h64v-64h-64v-64h-64v64h-64v64h-64v64h-64v-192h-128z" />
    <glyph glyph-name="l" unicode="l" horiz-adv-x="595" 
d="M0 0v192h64v192h64v192h128v-256h-64v-192h320v-128h-512z" />
    <glyph glyph-name="m" unicode="m" 
d="M0 0v192h64v384h128v-192h64v-64h64v64h64v192h128v-384h64v-192h-128v192h-64v-64h-64v-64h-64v64h-64v64h-64v-192h-128z" />
    <glyph glyph-name="n" unicode="n" horiz-adv-x="595" 
d="M0 0v512h64v64h64v-64h64v-64h64v-64h64v-64h64v256h128v-512h-128v64h-64v64h-64v64h-64v64h-64v-320h-128z" />
    <glyph glyph-name="o" unicode="o" horiz-adv-x="595" 
d="M320 128v64h64v192h-64v64h-128v-64h-64v-192h64v-64h128zM128 0v64h-64v64h-64v256h64v64h64v64h64v64h192v-64h64v-64h64v-320h-64v-64h-64v-64h-256z" />
    <glyph glyph-name="p" unicode="p" horiz-adv-x="531" 
d="M320 256v192h-192v-192h192zM0 0v576h320v-64h64v-64h64v-192h-64v-64h-256v-192h-128z" />
    <glyph glyph-name="q" unicode="q" 
d="M320 128v64h-64v64h128v128h-64v64h-128v-64h-64v-192h64v-64h128zM128 0v64h-64v64h-64v320h64v64h64v64h256v-64h64v-64h64v-320h64v-64h-64v-64h-64v64h-64v-64h-256z" />
    <glyph glyph-name="r" unicode="r" horiz-adv-x="595" 
d="M320 256v64h64v128h-256v-192h192zM0 0v576h384v-64h64v-64h64v-128h-64v-64h-64v-64h64v-64h64v-64h-64v-64h-64v64h-64v64h-64v64h-128v-192h-128z" />
    <glyph glyph-name="s" unicode="s" horiz-adv-x="595" 
d="M128 0v64h-64v64h-64v64h64v64h64v-64h64v-64h192v64h-64v64h-128v64h-128v64h-64v64h64v64h64v64h320v-64h64v-64h-64v-64h-64v64h-192v-64h64v-64h192v-64h64v-192h-64v-64h-320z" />
    <glyph glyph-name="t" unicode="t" horiz-adv-x="595" 
d="M128 0v192h64v256h-192v128h512v-128h-192v-448h-192z" />
    <glyph glyph-name="u" unicode="u" 
d="M128 0v64h-64v64h-64v448h128v-384h64v-64h192v64h64v320h128v-384h-64v-64h-64v-64h-320z" />
    <glyph glyph-name="v" unicode="v" 
d="M192 0v128h-64v128h-64v128h-64v128h64v64h64v-128h64v-128h64v-128h64v128h64v128h64v128h64v-64h64v-128h-64v-128h-64v-128h-64v-128h-192z" />
    <glyph glyph-name="w" unicode="w" 
d="M64 0v192h-64v384h128v-320h64v64h64v64h64v-64h64v-64h64v320h128v-384h-64v-192h-64v64h-64v64h-64v64h-64v-64h-64v-64h-64v-64h-64z" />
    <glyph glyph-name="x" unicode="x" horiz-adv-x="595" 
d="M64 0v64h-64v64h64v64h64v64h64v64h-64v64h-64v64h-64v64h64v64h64v-64h64v-64h128v64h64v64h64v-64h64v-64h-64v-64h-64v-64h-64v-64h64v-64h64v-64h64v-64h-64v-64h-64v64h-64v64h-128v-64h-64v-64h-64z" />
    <glyph glyph-name="y" unicode="y" 
d="M192 0v320h-64v64h-64v64h-64v64h64v64h64v-64h64v-64h64v-64h64v64h64v64h64v64h64v-64h64v-64h-64v-64h-64v-64h-64v-320h-192z" />
    <glyph glyph-name="z" unicode="z" horiz-adv-x="531" 
d="M0 0v192h64v64h64v64h64v64h64v64h-256v128h384v-64h64v-128h-64v-64h-64v-64h-64v-64h-64v-64h256v-128h-448z" />
    <glyph glyph-name="quoteright" unicode="&#x2019;" horiz-adv-x="211" 
d="M0 320v64h64v-64h-64zM64 384v64h-64v128h128v-192h-64z" />
    <glyph glyph-name="glyph1" horiz-adv-x="19" 
 />
    <glyph glyph-name="glyph2" horiz-adv-x="256" 
 />
  </font>
</defs>
</svg>
